<svg id="svg" version="1.1" xmlns="http://www.w3.org/2000/svg" xmlns:xlink="http://www.w3.org/1999/xlink" width="400" height="463.4994206257242" viewBox="0, 0, 400,463.4994206257242"><g id="svgg"><path id="path0" d="M198.221 1.619 C 197.353 2.053,196.543 2.540,196.421 2.703 C 196.300 2.867,194.985 3.593,193.500 4.317 C 192.015 5.041,190.800 5.762,190.800 5.919 C 190.800 6.076,189.855 6.636,188.700 7.164 C 187.545 7.691,186.060 8.517,185.400 8.998 C 184.740 9.479,183.611 10.105,182.891 10.389 C 182.170 10.673,181.450 11.109,181.291 11.358 C 181.131 11.607,179.920 12.322,178.600 12.946 C 177.280 13.570,176.019 14.288,175.797 14.541 C 175.575 14.793,174.495 15.439,173.397 15.976 C 172.299 16.512,171.130 17.161,170.800 17.417 C 170.470 17.674,169.210 18.403,168.000 19.039 C 166.790 19.674,165.710 20.307,165.600 20.444 C 165.490 20.582,164.500 21.172,163.400 21.755 C 162.300 22.338,160.050 23.613,158.400 24.588 C 156.750 25.563,154.320 26.932,153.000 27.632 C 151.680 28.331,150.510 29.037,150.400 29.200 C 150.290 29.363,149.120 30.071,147.800 30.772 C 146.480 31.473,144.230 32.746,142.800 33.600 C 141.370 34.454,139.120 35.727,137.800 36.428 C 136.480 37.129,135.310 37.837,135.200 38.000 C 135.090 38.163,133.920 38.872,132.600 39.576 C 131.280 40.279,128.850 41.640,127.200 42.600 C 125.550 43.559,123.300 44.831,122.200 45.425 C 121.100 46.019,120.110 46.618,120.000 46.756 C 119.890 46.893,118.810 47.526,117.600 48.161 C 116.390 48.797,115.130 49.524,114.800 49.777 C 114.470 50.031,113.210 50.759,112.000 51.396 C 110.790 52.032,109.562 52.788,109.271 53.076 C 108.981 53.364,108.546 53.600,108.305 53.600 C 108.064 53.600,106.568 54.410,104.979 55.400 C 103.391 56.390,101.936 57.205,101.746 57.211 C 101.556 57.218,100.324 57.938,99.009 58.811 C 97.693 59.685,96.422 60.400,96.184 60.400 C 95.946 60.400,95.402 60.723,94.975 61.118 C 94.549 61.514,93.300 62.265,92.200 62.788 C 91.100 63.311,89.691 64.157,89.069 64.669 C 88.447 65.181,87.747 65.600,87.513 65.600 C 87.278 65.600,85.987 66.294,84.643 67.142 C 83.299 67.990,81.827 68.802,81.371 68.947 C 80.914 69.091,80.194 69.522,79.771 69.905 C 79.347 70.288,77.994 71.087,76.765 71.681 C 75.536 72.275,74.299 73.040,74.016 73.380 C 73.733 73.721,73.331 74.000,73.121 74.000 C 72.762 74.000,70.654 75.172,64.258 78.931 C 60.908 80.900,59.966 81.429,56.767 83.141 C 55.389 83.878,54.023 84.720,53.732 85.011 C 53.440 85.303,52.185 86.022,50.941 86.610 C 49.698 87.199,48.483 87.857,48.240 88.074 C 47.737 88.524,44.898 90.164,41.400 92.026 C 40.080 92.728,38.910 93.437,38.800 93.600 C 38.690 93.763,37.430 94.483,36.000 95.200 C 34.570 95.917,33.310 96.636,33.200 96.799 C 33.090 96.962,32.010 97.592,30.800 98.200 C 29.590 98.808,28.510 99.438,28.400 99.600 C 28.290 99.762,27.210 100.392,26.000 101.000 C 24.790 101.608,23.710 102.238,23.600 102.401 C 23.490 102.564,22.230 103.283,20.800 104.000 C 19.370 104.717,18.110 105.416,18.000 105.555 C 17.890 105.693,16.810 106.334,15.600 106.979 C 14.390 107.625,13.162 108.388,12.871 108.676 C 12.581 108.964,12.127 109.200,11.862 109.200 C 11.598 109.200,10.396 109.850,9.191 110.643 C 7.986 111.437,6.109 112.539,5.020 113.091 C 3.931 113.643,2.356 114.547,1.520 115.100 L 0.000 116.106 0.000 231.596 L 0.000 347.086 2.300 348.493 C 3.565 349.267,5.230 350.217,6.000 350.606 C 6.770 350.994,7.490 351.443,7.600 351.604 C 7.710 351.765,8.970 352.483,10.400 353.200 C 11.830 353.917,13.090 354.637,13.200 354.800 C 13.310 354.963,14.480 355.669,15.800 356.368 C 17.120 357.068,19.550 358.437,21.200 359.412 C 22.850 360.387,25.100 361.662,26.200 362.245 C 27.300 362.828,28.290 363.418,28.400 363.556 C 28.510 363.693,29.590 364.326,30.800 364.961 C 32.010 365.597,33.270 366.326,33.600 366.583 C 33.930 366.839,35.093 367.488,36.185 368.024 C 37.276 368.561,38.493 369.285,38.889 369.634 C 39.284 369.982,40.551 370.700,41.704 371.229 C 42.857 371.758,43.931 372.395,44.091 372.643 C 44.250 372.892,44.970 373.327,45.691 373.611 C 46.411 373.895,47.540 374.509,48.200 374.974 C 48.860 375.440,50.120 376.176,51.000 376.611 C 51.880 377.045,53.140 377.772,53.800 378.227 C 54.460 378.682,55.886 379.492,56.970 380.027 C 58.053 380.562,59.268 381.315,59.670 381.700 C 60.071 382.085,60.601 382.400,60.846 382.400 C 61.091 382.400,62.591 383.210,64.179 384.200 C 65.768 385.190,67.255 386.000,67.485 386.000 C 67.714 386.000,68.120 386.263,68.387 386.584 C 68.653 386.905,70.070 387.748,71.536 388.457 C 73.001 389.166,74.254 389.876,74.321 390.036 C 74.388 390.195,75.468 390.837,76.721 391.462 C 77.974 392.086,79.263 392.848,79.584 393.154 C 79.905 393.461,80.805 393.974,81.584 394.295 C 82.363 394.617,83.270 395.112,83.600 395.395 C 83.930 395.679,85.190 396.411,86.400 397.022 C 87.610 397.634,88.870 398.354,89.200 398.622 C 89.530 398.891,90.790 399.616,92.000 400.235 C 93.210 400.853,94.290 401.480,94.400 401.627 C 94.510 401.775,95.500 402.372,96.600 402.955 C 97.700 403.538,99.950 404.813,101.600 405.788 C 103.250 406.763,105.680 408.132,107.000 408.832 C 108.320 409.531,109.490 410.237,109.600 410.400 C 109.710 410.563,110.880 411.274,112.200 411.978 C 116.499 414.274,119.391 415.920,119.847 416.331 C 120.093 416.552,121.263 417.222,122.447 417.819 C 123.631 418.416,124.690 419.018,124.800 419.156 C 124.910 419.293,125.990 419.926,127.200 420.561 C 128.410 421.197,129.670 421.928,130.000 422.187 C 130.330 422.446,131.635 423.184,132.899 423.829 C 134.164 424.473,135.199 425.102,135.199 425.226 C 135.200 425.351,136.325 425.981,137.700 426.626 C 139.075 427.272,140.331 428.001,140.491 428.248 C 140.650 428.494,141.370 428.935,142.091 429.228 C 142.811 429.521,144.300 430.328,145.400 431.021 C 146.500 431.714,148.075 432.598,148.900 432.986 C 149.725 433.374,150.400 433.839,150.400 434.019 C 150.400 434.199,150.805 434.474,151.300 434.631 C 151.795 434.787,153.343 435.609,154.741 436.458 C 156.138 437.306,157.352 438.000,157.438 438.000 C 157.524 438.000,158.896 438.810,160.487 439.800 C 162.078 440.790,163.575 441.600,163.814 441.600 C 164.053 441.600,164.598 441.925,165.025 442.322 C 165.451 442.719,166.838 443.552,168.108 444.173 C 169.377 444.794,170.498 445.435,170.599 445.599 C 170.700 445.762,171.822 446.414,173.091 447.047 C 174.361 447.680,175.608 448.393,175.861 448.632 C 176.115 448.870,177.375 449.590,178.661 450.232 C 179.948 450.873,181.263 451.648,181.584 451.954 C 181.905 452.261,182.805 452.774,183.584 453.095 C 184.363 453.417,185.270 453.912,185.600 454.195 C 185.930 454.479,187.190 455.219,188.400 455.841 C 189.610 456.462,190.808 457.172,191.061 457.418 C 191.315 457.664,192.575 458.389,193.861 459.029 C 195.148 459.668,196.290 460.305,196.400 460.442 C 197.890 462.307,201.432 462.445,203.260 460.710 C 203.557 460.428,204.852 459.673,206.139 459.032 C 207.425 458.390,208.685 457.664,208.939 457.418 C 209.192 457.172,210.390 456.458,211.600 455.832 C 212.810 455.206,214.229 454.357,214.754 453.947 C 215.279 453.536,215.844 453.200,216.010 453.200 C 216.307 453.200,223.412 449.134,224.200 448.514 C 224.420 448.341,225.606 447.713,226.835 447.119 C 228.064 446.525,229.301 445.760,229.584 445.420 C 229.867 445.079,230.318 444.800,230.587 444.800 C 230.856 444.800,232.190 444.080,233.551 443.200 C 234.913 442.320,236.161 441.600,236.324 441.600 C 236.487 441.600,237.922 440.790,239.513 439.800 C 241.104 438.810,242.476 438.000,242.562 438.000 C 242.648 438.000,243.862 437.306,245.259 436.458 C 246.657 435.609,248.205 434.787,248.700 434.631 C 249.195 434.474,249.600 434.199,249.600 434.020 C 249.600 433.840,250.614 433.214,251.852 432.627 C 253.091 432.041,254.666 431.148,255.352 430.644 C 256.039 430.140,257.189 429.495,257.909 429.211 C 258.630 428.927,259.350 428.494,259.509 428.248 C 259.669 428.001,260.925 427.272,262.300 426.626 C 263.675 425.981,264.800 425.351,264.801 425.226 C 264.801 425.102,265.836 424.473,267.101 423.829 C 268.365 423.184,269.670 422.446,270.000 422.187 C 270.330 421.928,271.590 421.197,272.800 420.561 C 274.010 419.926,275.090 419.293,275.200 419.156 C 275.310 419.018,276.300 418.419,277.400 417.825 C 278.500 417.231,280.750 415.959,282.400 415.000 C 284.050 414.040,286.480 412.679,287.800 411.976 C 289.120 411.272,290.290 410.564,290.400 410.401 C 290.510 410.238,291.581 409.610,292.780 409.005 C 293.980 408.400,295.420 407.590,295.980 407.205 C 296.956 406.536,302.708 403.214,307.526 400.537 C 308.777 399.842,309.981 399.111,310.203 398.912 C 310.424 398.713,311.774 397.959,313.203 397.237 C 314.631 396.515,316.070 395.701,316.400 395.428 C 316.730 395.155,317.810 394.523,318.800 394.022 C 319.790 393.522,320.690 392.995,320.800 392.852 C 320.910 392.709,322.035 392.077,323.300 391.448 C 324.565 390.819,325.600 390.158,325.600 389.979 C 325.600 389.800,326.005 389.527,326.500 389.371 C 326.995 389.215,328.300 388.565,329.400 387.926 C 330.500 387.287,331.670 386.608,332.000 386.417 C 332.330 386.226,333.974 385.244,335.654 384.235 C 337.334 383.226,338.909 382.400,339.154 382.400 C 339.399 382.400,339.924 382.085,340.319 381.700 C 340.714 381.315,342.250 380.389,343.731 379.642 C 345.212 378.895,346.510 378.146,346.614 377.977 C 346.719 377.808,347.658 377.261,348.702 376.763 C 349.746 376.264,351.140 375.468,351.800 374.992 C 352.460 374.517,353.589 373.895,354.309 373.611 C 355.030 373.327,355.750 372.891,355.909 372.641 C 356.069 372.391,357.415 371.603,358.900 370.889 C 360.385 370.176,361.600 369.450,361.600 369.276 C 361.600 369.103,362.213 368.739,362.962 368.468 C 363.711 368.197,364.928 367.566,365.666 367.065 C 366.404 366.564,367.996 365.626,369.204 364.980 C 370.412 364.334,371.490 363.693,371.600 363.556 C 371.710 363.418,372.700 362.828,373.800 362.245 C 374.900 361.662,377.150 360.387,378.800 359.412 C 380.450 358.437,382.880 357.068,384.200 356.368 C 385.520 355.669,386.690 354.963,386.800 354.800 C 386.910 354.637,388.170 353.917,389.600 353.200 C 391.030 352.483,392.290 351.764,392.400 351.601 C 392.510 351.438,393.500 350.821,394.600 350.230 C 395.700 349.638,397.365 348.701,398.300 348.147 L 400.000 347.140 400.000 231.606 L 400.000 116.072 397.410 114.436 C 395.985 113.536,394.675 112.800,394.498 112.800 C 394.321 112.800,392.921 111.991,391.388 111.003 C 389.855 110.014,388.388 109.204,388.129 109.203 C 387.869 109.201,387.419 108.964,387.129 108.676 C 386.838 108.388,385.610 107.625,384.400 106.979 C 383.190 106.334,382.110 105.700,382.000 105.570 C 381.890 105.440,380.630 104.723,379.200 103.976 C 377.770 103.230,376.510 102.503,376.400 102.362 C 376.290 102.221,375.210 101.608,374.000 101.000 C 372.790 100.392,371.710 99.762,371.600 99.600 C 371.490 99.438,370.410 98.808,369.200 98.200 C 367.990 97.592,366.910 96.962,366.800 96.799 C 366.690 96.636,365.430 95.917,364.000 95.200 C 362.570 94.483,361.310 93.763,361.200 93.600 C 361.090 93.437,359.920 92.728,358.600 92.026 C 355.026 90.123,352.260 88.521,351.728 88.044 C 351.469 87.812,350.128 87.075,348.749 86.407 C 347.371 85.739,346.143 85.037,346.021 84.848 C 345.900 84.658,344.720 83.932,343.400 83.233 C 340.426 81.660,339.177 80.948,336.530 79.321 C 335.385 78.617,333.673 77.648,332.724 77.167 C 331.776 76.686,330.910 76.167,330.800 76.014 C 330.690 75.861,329.562 75.233,328.292 74.617 C 327.023 74.002,325.902 73.365,325.801 73.201 C 325.700 73.038,324.578 72.386,323.309 71.752 C 322.039 71.118,320.653 70.287,320.229 69.905 C 319.806 69.522,319.086 69.091,318.629 68.947 C 318.173 68.802,316.701 67.990,315.357 67.142 C 314.013 66.294,312.722 65.600,312.487 65.600 C 312.253 65.600,311.553 65.187,310.931 64.683 C 310.309 64.178,308.907 63.323,307.815 62.783 C 306.724 62.242,305.475 61.485,305.040 61.100 C 304.605 60.715,304.054 60.400,303.816 60.400 C 303.578 60.400,302.307 59.685,300.991 58.811 C 299.676 57.938,298.415 57.218,298.188 57.211 C 297.961 57.205,296.521 56.391,294.988 55.403 C 293.455 54.414,291.988 53.604,291.729 53.603 C 291.469 53.601,291.019 53.364,290.729 53.076 C 290.438 52.788,289.210 52.032,288.000 51.396 C 286.790 50.759,285.530 50.031,285.200 49.777 C 284.870 49.524,283.610 48.797,282.400 48.161 C 281.190 47.526,280.110 46.889,280.000 46.747 C 279.890 46.604,278.990 46.077,278.000 45.576 C 277.010 45.075,275.954 44.471,275.653 44.233 C 275.070 43.772,271.344 41.667,267.400 39.572 C 266.080 38.871,264.910 38.163,264.800 38.000 C 264.690 37.837,263.520 37.129,262.200 36.428 C 260.880 35.727,258.630 34.454,257.200 33.600 C 255.770 32.746,253.520 31.473,252.200 30.772 C 250.880 30.071,249.710 29.363,249.600 29.200 C 249.490 29.037,248.320 28.331,247.000 27.632 C 245.680 26.932,243.250 25.563,241.600 24.588 C 239.950 23.613,237.700 22.338,236.600 21.755 C 235.500 21.172,234.510 20.582,234.400 20.444 C 234.290 20.307,233.212 19.666,232.004 19.020 C 230.796 18.374,229.204 17.436,228.466 16.935 C 227.728 16.434,226.511 15.803,225.762 15.532 C 225.013 15.261,224.400 14.900,224.400 14.731 C 224.400 14.561,223.365 13.906,222.100 13.275 C 220.835 12.643,219.100 11.648,218.244 11.063 C 217.388 10.479,216.537 10.000,216.352 10.000 C 216.167 10.000,215.009 9.356,213.779 8.569 C 212.548 7.782,211.015 6.954,210.371 6.730 C 209.727 6.505,209.200 6.189,209.200 6.026 C 209.200 5.864,207.988 5.116,206.508 4.365 C 205.027 3.614,203.569 2.770,203.268 2.489 C 202.840 2.089,200.089 0.742,199.851 0.816 C 199.823 0.825,199.090 1.186,198.221 1.619 M205.169 14.480 C 207.496 15.829,210.570 17.591,212.000 18.397 C 213.430 19.203,218.830 22.303,224.000 25.287 C 229.170 28.270,237.540 33.097,242.600 36.012 C 247.660 38.927,253.510 42.304,255.600 43.518 C 257.690 44.731,263.000 47.792,267.400 50.321 C 271.800 52.850,276.390 55.496,277.600 56.201 C 280.296 57.771,285.818 60.959,305.900 72.541 C 311.286 75.647,331.360 87.216,333.400 88.388 C 348.451 97.043,353.043 99.693,362.300 105.062 C 370.549 109.847,376.693 113.393,379.000 114.700 C 380.320 115.448,382.750 116.855,384.400 117.828 C 386.050 118.800,388.165 119.992,389.100 120.478 L 390.800 121.359 390.797 231.580 L 390.793 341.800 388.897 342.831 C 387.853 343.399,384.660 345.216,381.800 346.870 C 378.940 348.524,372.370 352.314,367.200 355.292 C 344.996 368.084,339.186 371.436,335.600 373.524 C 333.510 374.740,330.630 376.394,329.200 377.200 C 327.770 378.006,324.800 379.712,322.600 380.993 C 320.400 382.274,315.630 385.033,312.000 387.123 C 308.370 389.214,304.410 391.499,303.200 392.200 C 301.990 392.901,298.030 395.185,294.400 397.276 C 290.770 399.366,284.740 402.847,281.000 405.011 C 272.970 409.657,255.627 419.654,240.800 428.185 C 229.922 434.444,225.574 436.956,218.600 441.010 C 216.400 442.289,213.430 443.997,212.000 444.805 C 210.570 445.613,207.285 447.492,204.700 448.979 L 200.000 451.684 195.300 448.985 C 192.715 447.500,188.350 444.987,185.600 443.400 C 179.201 439.706,171.152 435.065,164.800 431.405 C 162.050 429.821,158.000 427.481,155.800 426.205 C 151.462 423.691,143.659 419.195,130.800 411.803 C 126.290 409.210,120.350 405.790,117.600 404.202 C 114.850 402.615,110.260 399.965,107.400 398.314 C 104.540 396.663,100.400 394.269,98.200 392.994 C 96.000 391.719,91.905 389.354,89.100 387.738 C 86.295 386.122,81.705 383.477,78.900 381.861 C 76.095 380.244,70.830 377.212,67.200 375.122 C 63.570 373.033,57.604 369.592,53.942 367.476 C 50.280 365.360,44.520 362.036,41.142 360.089 C 37.764 358.142,30.050 353.690,24.000 350.195 C 17.950 346.700,12.146 343.382,11.103 342.820 L 9.206 341.800 9.303 231.615 L 9.400 121.430 14.400 118.521 C 17.150 116.922,20.300 115.100,21.400 114.473 C 22.500 113.846,25.740 111.980,28.600 110.327 C 39.790 103.858,49.459 98.281,60.000 92.217 C 66.050 88.737,73.250 84.587,76.000 82.997 C 78.750 81.406,84.060 78.343,87.800 76.190 C 91.540 74.037,95.590 71.700,96.800 70.996 C 98.010 70.293,101.340 68.369,104.200 66.720 C 107.060 65.071,112.910 61.689,117.200 59.205 C 121.490 56.720,126.170 54.022,127.600 53.210 C 130.602 51.504,141.442 45.261,149.000 40.884 C 151.860 39.228,157.800 35.802,162.200 33.272 C 171.864 27.714,173.110 26.994,180.000 22.996 C 182.970 21.273,186.570 19.202,188.000 18.395 C 189.430 17.588,192.670 15.730,195.200 14.266 C 197.730 12.802,200.056 11.700,200.369 11.816 C 200.683 11.933,202.843 13.132,205.169 14.480 M262.273 81.390 C 245.912 83.732,225.017 95.637,204.526 114.291 C 199.664 118.717,200.571 118.623,196.637 115.108 C 191.883 110.860,191.669 110.675,188.400 107.970 C 172.610 94.905,158.068 86.915,142.200 82.585 C 132.000 79.801,120.172 81.295,112.893 86.285 C 96.599 97.455,91.505 131.155,100.439 168.678 C 101.077 171.361,101.599 173.881,101.597 174.278 C 101.594 174.858,100.315 175.411,95.097 177.089 C 34.646 196.527,14.036 229.864,44.452 259.008 C 56.847 270.884,76.550 281.547,97.373 287.648 C 99.558 288.288,101.427 288.893,101.526 288.993 C 101.625 289.092,101.153 291.474,100.477 294.286 C 99.801 297.099,98.873 301.830,98.414 304.800 C 97.955 307.770,97.410 311.280,97.202 312.600 C 92.439 342.860,100.268 370.676,115.800 378.674 C 134.959 388.540,168.165 376.103,197.865 347.938 C 200.694 345.256,200.732 345.244,202.030 346.650 C 207.247 352.295,224.423 365.621,232.498 370.287 C 268.861 391.300,293.783 384.650,301.782 351.800 C 305.672 335.826,304.938 312.454,299.901 291.910 C 299.431 289.991,299.126 288.358,299.223 288.282 C 299.320 288.205,302.010 287.282,305.200 286.229 C 354.342 270.011,378.786 242.802,366.316 218.200 C 358.077 201.945,337.631 188.180,306.000 177.592 C 301.930 176.230,298.549 175.069,298.487 175.011 C 298.424 174.954,298.743 173.308,299.196 171.353 C 305.132 145.712,305.136 119.626,299.207 103.878 C 292.638 86.429,280.158 78.830,262.273 81.390 M275.474 96.097 C 288.754 101.179,293.290 130.020,286.189 164.226 C 284.539 172.174,284.776 171.823,281.596 170.999 C 280.213 170.641,276.273 169.828,272.841 169.193 C 269.408 168.558,265.610 167.852,264.400 167.624 C 262.416 167.251,240.240 164.400,239.318 164.400 C 239.108 164.400,238.329 163.545,237.589 162.500 C 231.047 153.272,222.695 142.676,215.953 135.050 C 213.449 132.218,211.141 129.544,210.824 129.109 C 210.192 128.240,209.716 128.793,216.278 122.761 C 237.802 102.974,263.360 91.462,275.474 96.097 M139.229 96.546 C 152.879 99.785,168.282 108.992,185.700 124.325 C 188.065 126.406,190.000 128.241,190.000 128.401 C 190.000 128.562,188.179 130.742,185.953 133.246 C 178.123 142.058,170.830 151.086,164.263 160.100 C 162.540 162.465,160.959 164.400,160.750 164.400 C 156.260 164.400,124.624 169.272,118.170 170.957 C 115.397 171.681,115.578 171.995,113.812 163.400 C 108.629 138.182,109.330 116.225,115.699 104.274 C 120.134 95.953,127.095 93.667,139.229 96.546 M202.548 141.126 C 203.619 142.377,205.965 145.110,207.761 147.200 C 213.261 153.599,220.000 162.127,220.000 162.689 C 220.000 162.860,211.000 163.000,200.000 163.000 C 189.000 163.000,180.000 162.943,180.000 162.873 C 180.000 162.340,189.348 150.802,194.440 145.049 C 196.948 142.217,199.179 139.652,199.398 139.349 C 200.037 138.467,200.487 138.720,202.548 141.126 M218.800 177.202 C 223.310 177.415,227.954 177.703,229.119 177.843 L 231.239 178.097 234.278 182.748 C 238.245 188.818,243.014 196.408,244.677 199.300 C 245.405 200.565,246.656 202.725,247.457 204.100 C 253.427 214.341,262.000 230.532,262.000 231.565 C 262.000 232.552,252.039 251.283,246.134 261.400 C 240.026 271.864,232.240 284.171,231.161 285.067 C 229.683 286.293,184.349 286.812,172.058 285.742 L 169.117 285.487 165.032 279.243 C 155.816 265.157,146.302 248.609,139.655 235.102 L 137.933 231.605 142.708 222.302 C 150.014 208.071,156.042 197.700,164.895 184.129 L 168.855 178.058 171.328 177.794 C 179.883 176.880,205.290 176.564,218.800 177.202 M150.400 180.170 C 150.400 180.263,149.052 182.512,147.404 185.167 C 142.975 192.304,138.191 200.569,134.245 207.900 C 132.321 211.475,130.607 214.400,130.436 214.400 C 129.545 214.400,119.185 185.811,119.862 185.222 C 121.057 184.182,150.400 179.328,150.400 180.170 M259.339 181.216 C 265.577 182.206,273.302 183.663,279.500 185.018 C 280.880 185.320,279.501 190.264,274.261 203.800 C 269.660 215.685,269.925 215.366,267.850 211.493 C 263.136 202.692,251.070 182.110,249.995 181.035 C 248.640 179.680,249.806 179.703,259.339 181.216 M108.276 196.400 C 111.161 204.888,113.193 210.342,115.802 216.600 C 116.811 219.020,118.170 222.316,118.823 223.924 C 119.476 225.532,120.458 227.731,121.005 228.810 C 122.253 231.272,122.246 232.062,120.954 234.800 C 116.935 243.317,111.536 257.016,107.986 267.700 C 106.615 271.825,105.331 275.200,105.133 275.200 C 103.553 275.200,89.387 269.990,81.800 266.619 C 61.802 257.732,47.045 244.668,44.813 233.873 C 41.872 219.647,64.101 201.998,99.600 190.373 C 106.065 188.256,105.336 187.749,108.276 196.400 M303.200 191.593 C 336.426 202.731,357.998 220.276,355.187 233.873 C 352.375 247.473,331.467 262.495,301.241 272.630 C 294.696 274.825,295.441 275.152,293.408 269.184 C 290.621 261.001,287.224 252.236,283.843 244.500 C 283.049 242.685,281.759 239.721,280.977 237.913 C 280.194 236.105,279.414 234.440,279.244 234.213 C 277.934 232.467,277.905 231.278,279.110 228.722 C 279.764 227.335,281.144 224.220,282.176 221.800 C 283.208 219.380,284.476 216.410,284.993 215.200 C 286.742 211.109,289.902 202.633,292.003 196.400 C 293.153 192.990,294.252 189.897,294.446 189.528 C 294.855 188.747,294.370 188.633,303.200 191.593 M194.200 201.783 C 168.083 206.543,161.169 241.842,183.494 256.434 C 207.971 272.432,237.666 248.542,228.149 220.509 C 223.725 207.480,208.629 199.153,194.200 201.783 M270.895 250.100 C 271.263 251.035,272.484 254.050,273.608 256.800 C 276.969 265.019,281.202 276.719,281.199 277.781 C 281.197 278.505,262.127 282.121,251.700 283.375 C 249.050 283.694,248.702 284.649,255.154 273.875 C 260.950 264.194,265.780 255.680,268.060 251.121 C 269.639 247.964,270.004 247.832,270.895 250.100 M132.457 252.170 C 134.890 256.878,143.563 271.927,147.108 277.593 C 149.102 280.778,150.668 283.490,150.589 283.617 C 150.330 284.037,142.301 282.948,128.200 280.582 C 122.541 279.632,119.600 278.772,119.600 278.067 C 119.600 276.525,128.820 251.362,130.156 249.257 C 130.572 248.601,130.691 248.751,132.457 252.170 M286.185 295.500 C 286.597 297.425,287.169 300.080,287.457 301.400 C 289.926 312.727,290.901 331.951,289.466 341.000 C 285.269 367.465,274.680 373.804,251.200 363.906 C 239.702 359.059,220.654 345.775,211.838 336.455 L 210.676 335.227 211.638 334.046 C 212.167 333.397,214.144 331.096,216.031 328.933 C 222.337 321.705,230.181 311.613,236.655 302.400 C 238.788 299.364,239.191 298.988,240.422 298.885 C 243.719 298.609,264.250 295.936,267.083 295.413 C 268.797 295.097,272.270 294.460,274.800 293.997 C 277.330 293.534,280.390 292.915,281.600 292.622 C 285.521 291.671,285.341 291.559,286.185 295.500 M122.200 293.829 C 125.280 294.392,129.212 295.110,130.938 295.424 C 135.225 296.205,149.307 297.987,159.484 299.038 C 161.524 299.249,161.608 299.310,163.461 301.927 C 170.011 311.179,177.535 320.445,189.916 334.509 C 190.671 335.366,189.907 336.256,184.139 341.239 C 156.994 364.690,130.589 374.080,119.629 364.178 C 109.363 354.904,107.514 328.328,114.808 294.900 C 115.352 292.409,114.846 292.482,122.200 293.829 M220.400 300.502 C 220.400 301.731,201.541 324.600,200.529 324.600 C 199.489 324.600,180.399 301.823,180.400 300.583 C 180.400 300.344,187.908 300.200,200.400 300.200 C 211.400 300.200,220.400 300.336,220.400 300.502 " stroke="none" fill="#04dafa" fill-rule="evenodd"></path><path id="path1" d="M197.200 13.610 C 195.770 14.447,193.520 15.746,192.200 16.497 C 189.781 17.871,181.043 22.925,176.600 25.519 C 175.280 26.290,173.030 27.586,171.600 28.400 C 170.170 29.214,167.920 30.510,166.600 31.281 C 161.355 34.343,153.282 38.973,151.200 40.112 C 149.990 40.774,148.820 41.450,148.600 41.615 C 148.380 41.780,146.400 42.951,144.200 44.218 C 129.248 52.827,123.883 55.908,121.600 57.197 C 118.837 58.758,114.995 60.974,114.000 61.582 C 112.980 62.205,103.188 67.846,95.400 72.296 C 94.080 73.050,91.830 74.357,90.400 75.200 C 88.970 76.043,86.720 77.350,85.400 78.104 C 79.073 81.720,77.222 82.783,75.000 84.081 C 73.680 84.852,70.170 86.885,67.200 88.600 C 64.230 90.315,60.720 92.348,59.400 93.119 C 58.080 93.890,55.830 95.186,54.400 96.000 C 52.970 96.814,50.720 98.110,49.400 98.880 C 48.080 99.650,42.770 102.711,37.600 105.681 C 32.430 108.652,27.247 111.649,26.082 112.341 C 24.918 113.034,23.866 113.600,23.744 113.600 C 23.623 113.600,23.046 113.937,22.462 114.349 C 21.878 114.762,20.500 115.574,19.400 116.154 C 18.300 116.735,15.690 118.243,13.600 119.505 L 9.800 121.800 9.699 231.472 L 9.599 341.145 10.699 341.913 C 11.305 342.335,16.166 345.183,21.503 348.241 C 26.839 351.298,34.849 355.915,39.303 358.501 C 43.756 361.087,48.390 363.750,49.600 364.421 C 50.810 365.091,53.150 366.438,54.800 367.413 C 56.450 368.388,58.790 369.738,60.000 370.413 C 61.210 371.088,63.550 372.438,65.200 373.413 C 66.850 374.388,69.190 375.737,70.400 376.410 C 71.610 377.084,73.680 378.284,75.000 379.077 C 76.320 379.869,78.570 381.187,80.000 382.004 C 81.430 382.821,83.950 384.261,85.600 385.204 C 89.875 387.646,92.507 389.171,93.200 389.607 C 94.081 390.162,97.824 392.323,100.800 393.996 C 103.584 395.561,122.795 406.617,135.600 414.024 C 146.284 420.204,148.229 421.325,151.000 422.901 C 152.320 423.651,154.570 424.953,156.000 425.793 C 157.430 426.633,159.770 427.986,161.200 428.800 C 162.630 429.614,164.970 430.964,166.400 431.801 C 170.002 433.910,173.763 436.087,176.600 437.706 C 181.911 440.737,184.830 442.416,189.702 445.241 C 192.507 446.869,195.972 448.860,197.402 449.667 L 200.000 451.134 202.700 449.588 C 204.185 448.739,206.570 447.393,208.000 446.598 C 209.430 445.804,211.770 444.455,213.200 443.600 C 214.630 442.746,216.790 441.493,218.000 440.816 C 219.210 440.139,221.550 438.788,223.200 437.813 C 224.850 436.838,227.190 435.488,228.400 434.813 C 229.610 434.138,231.950 432.788,233.600 431.813 C 235.250 430.838,237.590 429.491,238.800 428.820 C 240.010 428.149,242.350 426.790,244.000 425.800 C 245.650 424.810,247.990 423.450,249.200 422.778 C 250.410 422.106,252.570 420.877,254.000 420.046 C 263.925 414.282,278.000 406.164,279.000 405.628 C 279.660 405.274,281.370 404.300,282.800 403.464 C 284.230 402.628,285.670 401.788,286.000 401.598 C 296.917 395.299,298.263 394.525,304.600 390.904 C 305.920 390.150,308.170 388.843,309.600 388.000 C 311.030 387.157,313.280 385.850,314.600 385.096 C 320.968 381.457,322.787 380.412,325.100 379.060 C 326.475 378.257,328.725 376.943,330.100 376.140 C 331.475 375.337,333.770 374.014,335.200 373.200 C 336.630 372.386,338.970 371.036,340.400 370.200 C 341.830 369.364,344.170 368.014,345.600 367.200 C 347.030 366.386,349.280 365.090,350.600 364.320 C 351.920 363.549,356.690 360.795,361.200 358.200 C 365.710 355.605,370.390 352.906,371.600 352.203 C 372.810 351.500,376.860 349.172,380.600 347.029 C 384.340 344.886,388.075 342.695,388.901 342.160 L 390.401 341.188 390.301 231.494 L 390.200 121.800 386.400 119.482 C 384.310 118.207,382.330 117.048,382.000 116.906 C 381.670 116.765,380.500 116.116,379.400 115.466 C 378.300 114.815,372.000 111.178,365.400 107.384 C 358.800 103.590,349.890 98.459,345.600 95.982 C 341.310 93.505,335.460 90.129,332.600 88.480 C 329.740 86.831,326.410 84.905,325.200 84.200 C 323.990 83.495,320.840 81.698,318.200 80.206 C 315.560 78.715,312.941 77.179,312.380 76.795 C 311.820 76.410,310.470 75.614,309.380 75.027 C 308.291 74.440,306.050 73.162,304.400 72.187 C 302.750 71.213,300.509 69.941,299.420 69.360 C 298.330 68.780,296.980 67.988,296.420 67.601 C 295.859 67.213,293.374 65.749,290.897 64.348 C 288.420 62.947,285.270 61.154,283.897 60.365 C 281.081 58.746,266.923 50.550,266.000 50.005 C 264.934 49.375,250.373 41.017,244.400 37.608 C 236.988 33.377,233.453 31.339,231.200 30.000 C 230.210 29.412,228.050 28.154,226.400 27.205 C 220.471 23.795,217.764 22.235,215.600 20.984 C 214.390 20.284,212.140 18.991,210.600 18.111 C 209.060 17.231,207.170 16.132,206.400 15.670 C 204.834 14.729,200.309 12.238,200.000 12.146 C 199.890 12.114,198.630 12.772,197.200 13.610 M279.453 81.983 C 300.842 89.341,309.822 123.228,301.188 164.000 C 300.745 166.090,300.057 169.371,299.658 171.292 L 298.932 174.784 300.566 175.346 C 301.465 175.655,305.350 176.938,309.200 178.196 C 313.050 179.455,316.560 180.702,317.000 180.967 C 317.440 181.233,318.970 181.868,320.400 182.378 C 323.518 183.492,333.814 188.532,338.000 190.994 C 339.650 191.964,341.634 193.110,342.409 193.541 C 344.750 194.841,350.452 199.118,354.555 202.650 C 357.437 205.131,357.948 205.664,361.235 209.601 C 375.525 226.720,372.307 245.523,352.200 262.383 C 340.989 271.784,323.551 280.893,306.200 286.412 C 299.214 288.634,299.601 288.455,299.795 289.364 C 299.893 289.824,300.414 292.090,300.953 294.400 C 302.228 299.863,303.061 305.267,304.407 316.800 C 304.861 320.689,304.866 336.186,304.416 339.800 C 300.031 374.942,283.357 388.538,254.400 380.583 C 245.254 378.071,231.533 371.007,222.000 363.904 C 215.681 359.196,209.786 354.490,207.831 352.595 C 207.374 352.152,205.554 350.503,203.787 348.931 L 200.574 346.073 197.787 348.713 C 195.424 350.952,189.539 355.922,183.972 360.381 C 182.563 361.509,174.456 367.007,170.587 369.459 C 165.924 372.413,156.959 376.727,150.600 379.077 C 122.395 389.501,101.102 377.150,97.023 348.000 C 96.669 345.470,96.204 342.299,95.990 340.954 C 95.480 337.754,95.487 322.776,96.000 319.307 C 96.221 317.818,96.686 314.080,97.034 311.000 C 97.681 305.274,97.957 303.692,99.905 294.563 L 101.022 289.325 96.211 287.809 C 69.840 279.495,49.569 267.154,37.672 252.168 C 23.810 234.707,29.420 212.918,51.825 197.200 C 53.943 195.714,58.796 192.539,60.800 191.329 C 63.374 189.773,76.939 183.047,78.400 182.601 C 78.950 182.433,80.120 181.965,81.000 181.561 C 83.203 180.549,89.581 178.307,95.800 176.358 C 98.660 175.462,101.033 174.697,101.074 174.657 C 101.115 174.618,100.617 171.979,99.967 168.793 C 99.318 165.607,98.533 161.740,98.224 160.200 C 97.679 157.488,96.941 151.517,95.973 142.000 C 93.768 120.300,99.052 98.817,109.009 89.006 C 116.225 81.896,128.992 78.939,140.400 81.735 C 153.689 84.992,163.008 89.297,176.400 98.363 C 182.278 102.342,195.126 112.554,196.762 114.546 C 197.070 114.922,197.995 115.763,198.817 116.414 L 200.312 117.597 201.656 116.265 C 206.946 111.024,218.378 101.797,225.000 97.423 C 227.640 95.680,230.522 93.766,231.405 93.170 C 246.672 82.867,267.754 77.959,279.453 81.983 M127.560 96.020 C 118.929 97.008,114.315 103.937,111.594 119.998 C 109.844 130.330,111.249 151.331,114.606 165.000 C 116.295 171.878,115.244 171.242,122.200 169.589 C 123.960 169.171,127.830 168.457,130.800 168.004 C 133.770 167.550,138.180 166.825,140.600 166.393 C 143.020 165.961,148.575 165.255,152.945 164.825 C 157.315 164.394,160.923 163.988,160.962 163.921 C 161.188 163.536,163.996 159.707,166.332 156.600 C 172.507 148.387,174.380 145.997,177.929 141.805 C 183.949 134.694,184.879 133.627,187.310 131.050 L 189.620 128.600 187.110 126.253 C 169.976 110.232,147.822 97.355,135.400 96.195 C 134.080 96.072,132.370 95.914,131.600 95.845 C 130.830 95.775,129.012 95.854,127.560 96.020 M262.400 96.211 C 249.174 98.940,232.639 108.766,215.881 123.858 L 210.762 128.467 213.475 131.534 C 214.967 133.220,216.578 135.050,217.056 135.600 C 217.534 136.150,218.726 137.521,219.704 138.647 C 223.881 143.455,229.985 151.319,238.710 163.134 C 239.350 164.002,239.949 164.124,247.000 164.838 C 251.180 165.260,256.220 165.887,258.200 166.230 C 260.180 166.573,263.600 167.124,265.800 167.454 C 269.853 168.062,275.266 169.101,280.000 170.180 C 284.282 171.155,284.168 171.207,284.947 167.900 C 286.422 161.641,287.681 153.602,288.815 143.200 C 289.394 137.892,289.274 127.605,288.577 122.851 C 285.259 100.200,278.148 92.963,262.400 96.211 M196.336 143.500 C 191.466 149.098,187.008 154.451,183.708 158.665 L 180.837 162.330 199.999 162.295 C 213.546 162.270,219.086 162.134,218.906 161.830 C 217.182 158.921,200.928 139.600,200.205 139.600 C 199.943 139.600,198.202 141.355,196.336 143.500 M183.400 177.633 C 178.340 177.803,173.083 178.059,171.717 178.201 L 169.234 178.460 165.881 183.530 C 162.383 188.818,161.708 189.890,155.169 200.524 C 150.076 208.808,138.800 230.356,138.800 231.805 C 138.800 232.730,149.542 253.440,152.179 257.600 C 152.667 258.370,154.021 260.620,155.188 262.600 C 156.355 264.580,157.706 266.830,158.191 267.600 C 158.675 268.370,159.856 270.260,160.814 271.800 C 163.672 276.390,169.249 284.783,169.576 284.985 C 171.329 286.069,227.479 285.964,230.414 284.871 C 231.060 284.631,234.641 279.502,237.725 274.400 C 238.323 273.410,239.553 271.430,240.457 270.000 C 241.361 268.570,242.552 266.590,243.104 265.600 C 243.656 264.610,244.247 263.620,244.419 263.400 C 245.478 262.043,252.697 248.912,257.675 239.290 L 261.664 231.579 259.218 226.690 C 252.986 214.230,244.217 198.922,236.483 187.000 C 235.055 184.800,233.238 181.988,232.444 180.751 L 231.000 178.502 228.200 178.241 C 218.816 177.365,199.280 177.100,183.400 177.633 M147.000 180.682 C 134.204 182.408,119.759 185.286,120.212 186.019 C 120.333 186.215,120.955 188.045,121.594 190.087 C 122.889 194.220,125.402 201.366,125.995 202.600 C 126.206 203.040,126.904 204.840,127.546 206.600 C 128.188 208.360,129.112 210.679,129.599 211.754 C 130.589 213.936,130.541 213.959,132.373 210.400 C 136.576 202.231,146.479 185.220,148.879 182.046 C 150.121 180.403,149.955 180.283,147.000 180.682 M250.400 180.666 C 250.400 180.817,251.006 181.855,251.746 182.971 C 253.762 186.012,255.648 189.057,257.586 192.400 C 258.542 194.050,259.724 196.030,260.211 196.800 C 260.699 197.570,261.883 199.640,262.842 201.400 C 263.802 203.160,264.996 205.320,265.496 206.200 C 265.997 207.080,267.030 209.002,267.793 210.470 C 268.556 211.939,269.322 213.228,269.494 213.335 C 269.785 213.514,270.728 211.458,273.408 204.800 C 274.587 201.870,280.000 186.411,280.000 185.973 C 280.000 185.333,268.257 182.955,257.400 181.397 C 255.200 181.081,252.725 180.725,251.900 180.607 C 251.075 180.488,250.400 180.514,250.400 180.666 M104.200 189.493 C 77.086 196.265,49.170 214.335,45.637 227.400 C 41.900 241.219,61.259 258.980,92.800 270.669 C 101.777 273.996,105.600 274.910,105.600 273.730 C 105.600 272.992,109.945 260.042,110.407 259.400 C 110.566 259.180,110.922 258.280,111.199 257.400 C 111.972 254.939,115.728 245.484,117.793 240.800 C 118.811 238.490,120.107 235.465,120.673 234.079 L 121.702 231.558 120.586 228.879 C 119.971 227.405,119.322 226.006,119.142 225.768 C 118.963 225.531,118.347 224.091,117.774 222.568 C 117.201 221.046,116.598 219.620,116.434 219.400 C 116.142 219.008,112.967 210.948,110.289 203.800 C 109.548 201.820,108.144 197.729,107.170 194.708 C 106.197 191.688,105.310 189.233,105.200 189.255 C 105.090 189.276,104.640 189.383,104.200 189.493 M294.615 190.100 C 291.660 199.339,285.951 214.644,283.284 220.476 C 282.649 221.864,281.891 223.630,281.598 224.400 C 281.305 225.170,280.934 225.980,280.773 226.200 C 280.612 226.420,280.035 227.699,279.491 229.042 L 278.503 231.485 279.890 234.442 C 281.456 237.780,283.592 242.632,285.066 246.200 C 285.611 247.520,286.383 249.320,286.780 250.200 C 287.177 251.080,288.349 254.050,289.384 256.800 C 290.419 259.550,291.775 263.150,292.397 264.800 C 293.019 266.450,293.836 268.880,294.213 270.200 C 295.438 274.491,294.867 274.441,304.400 271.078 C 338.271 259.126,358.507 241.243,354.232 227.041 C 353.695 225.256,350.901 220.528,349.600 219.203 C 349.270 218.867,348.638 218.143,348.196 217.596 C 346.061 214.953,339.632 209.704,334.621 206.513 C 330.443 203.852,322.370 199.580,318.800 198.140 C 317.370 197.564,316.012 196.945,315.781 196.765 C 314.906 196.080,296.393 189.600,295.311 189.600 C 295.016 189.600,294.703 189.825,294.615 190.100 M210.101 202.500 C 215.760 204.572,222.595 209.578,224.546 213.077 C 224.767 213.475,225.213 214.066,225.536 214.390 C 230.845 219.724,231.936 235.297,227.630 244.278 C 213.531 273.679,169.662 263.887,169.607 231.326 C 169.571 210.184,190.465 195.310,210.101 202.500 M269.403 249.595 C 269.234 249.869,268.374 251.467,267.492 253.146 C 263.863 260.056,261.536 264.288,260.202 266.400 C 259.715 267.170,257.626 270.635,255.559 274.100 C 253.491 277.565,251.468 280.940,251.063 281.600 L 250.326 282.800 251.317 282.800 C 252.628 282.800,264.200 281.252,264.902 280.982 C 265.203 280.867,268.832 280.160,272.966 279.411 C 277.100 278.663,280.574 277.959,280.685 277.848 C 280.880 277.653,277.602 267.848,276.791 266.200 C 276.575 265.760,275.962 264.140,275.430 262.600 C 274.437 259.730,270.893 251.195,270.134 249.849 C 269.821 249.293,269.630 249.227,269.403 249.595 M130.157 250.243 C 130.013 250.659,129.479 251.990,128.970 253.200 C 127.557 256.561,124.560 264.404,124.002 266.200 C 123.729 267.080,123.269 268.340,122.979 269.000 C 122.301 270.546,119.902 278.445,120.071 278.575 C 120.142 278.629,122.090 278.989,124.400 279.374 C 126.710 279.760,130.310 280.412,132.400 280.823 C 134.490 281.235,138.540 281.850,141.400 282.190 C 144.260 282.530,147.376 282.910,148.325 283.033 L 150.050 283.256 149.419 282.128 C 149.073 281.508,147.866 279.560,146.738 277.800 C 144.964 275.032,143.487 272.585,139.816 266.335 C 138.919 264.808,136.775 261.041,135.299 258.400 C 134.746 257.410,133.497 255.075,132.524 253.211 C 130.434 249.207,130.491 249.278,130.157 250.243 M280.800 293.231 C 278.170 293.930,274.271 294.636,260.000 297.001 C 258.130 297.311,252.940 297.934,248.467 298.386 C 238.994 299.342,239.568 299.122,237.000 302.782 C 230.397 312.190,220.844 324.347,214.252 331.733 C 211.604 334.700,211.486 334.915,212.028 335.769 C 213.501 338.093,227.092 349.254,234.200 353.978 C 235.960 355.148,237.866 356.425,238.434 356.816 C 243.922 360.588,257.540 366.282,263.293 367.209 C 277.113 369.437,283.841 363.950,287.910 347.134 L 289.394 341.000 289.385 328.200 L 289.375 315.400 287.684 305.600 C 285.231 291.382,285.557 291.968,280.800 293.231 M115.600 293.556 C 115.600 293.972,115.162 295.999,114.626 298.061 C 114.091 300.122,113.189 305.047,112.624 309.004 C 112.058 312.962,111.388 317.550,111.135 319.200 C 110.249 324.985,110.566 338.253,111.743 344.600 C 115.190 363.196,121.697 369.259,136.038 367.236 C 146.566 365.751,159.742 359.370,173.850 348.924 C 176.297 347.112,178.727 345.275,179.250 344.842 C 181.890 342.655,186.798 338.324,188.329 336.831 L 190.058 335.145 188.314 333.272 C 187.355 332.243,186.037 330.783,185.385 330.029 C 184.733 329.275,183.840 328.293,183.400 327.846 C 182.960 327.399,182.240 326.553,181.800 325.966 C 181.360 325.379,179.288 322.852,177.195 320.350 C 172.948 315.271,171.866 313.900,166.630 306.947 C 165.327 305.216,163.575 302.887,162.737 301.772 L 161.214 299.744 157.507 299.269 C 155.468 299.007,151.010 298.512,147.600 298.168 C 144.190 297.824,139.780 297.273,137.800 296.944 C 135.820 296.615,132.490 296.082,130.400 295.759 C 124.389 294.830,119.962 293.989,117.827 293.371 C 115.404 292.670,115.600 292.653,115.600 293.556 M181.944 302.240 C 182.525 302.924,183.720 304.432,184.600 305.590 C 189.192 311.632,199.909 324.001,200.548 323.997 C 201.389 323.991,217.081 305.062,219.292 301.387 C 219.461 301.104,213.415 300.976,200.214 300.984 L 180.888 300.995 181.944 302.240 " stroke="none" fill="#242424" fill-rule="evenodd"></path><path id="path2" d="M267.312 80.695 C 268.364 80.777,269.984 80.776,270.912 80.692 C 271.840 80.608,270.980 80.541,269.000 80.542 C 267.020 80.543,266.260 80.612,267.312 80.695 M129.111 81.093 C 130.051 81.178,131.491 81.177,132.311 81.091 C 133.130 81.005,132.360 80.936,130.600 80.937 C 128.840 80.939,128.170 81.009,129.111 81.093 M196.800 114.925 C 196.800 114.994,197.385 115.579,198.100 116.225 L 199.400 117.400 198.225 116.100 C 197.130 114.888,196.800 114.616,196.800 114.925 M9.397 231.600 C 9.397 291.990,9.443 316.695,9.500 286.500 C 9.557 256.305,9.557 206.895,9.500 176.700 C 9.443 146.505,9.397 171.210,9.397 231.600 M390.400 231.880 C 390.290 292.424,390.335 341.825,390.501 341.659 C 390.666 341.494,390.756 291.958,390.701 231.579 L 390.600 121.800 390.400 231.880 M110.501 128.600 C 110.505 129.480,110.587 129.793,110.683 129.295 C 110.779 128.798,110.775 128.078,110.675 127.695 C 110.575 127.313,110.496 127.720,110.501 128.600 M110.493 136.400 C 110.493 137.170,110.575 137.485,110.676 137.100 C 110.776 136.715,110.776 136.085,110.676 135.700 C 110.575 135.315,110.493 135.630,110.493 136.400 M184.700 162.689 C 185.415 162.778,186.585 162.778,187.300 162.689 C 188.015 162.601,187.430 162.528,186.000 162.528 C 184.570 162.528,183.985 162.601,184.700 162.689 M213.091 162.689 C 213.801 162.777,215.061 162.779,215.891 162.692 C 216.721 162.605,216.140 162.533,214.600 162.531 C 213.060 162.529,212.381 162.600,213.091 162.689 M184.505 177.487 C 185.114 177.579,186.014 177.577,186.505 177.482 C 186.997 177.387,186.500 177.311,185.400 177.314 C 184.300 177.317,183.897 177.395,184.505 177.487 M213.705 177.487 C 214.314 177.579,215.214 177.577,215.705 177.482 C 216.197 177.387,215.700 177.311,214.600 177.314 C 213.500 177.317,213.097 177.395,213.705 177.487 M198.300 201.093 C 199.235 201.177,200.765 201.177,201.700 201.093 C 202.635 201.009,201.870 200.940,200.000 200.940 C 198.130 200.940,197.365 201.009,198.300 201.093 M42.985 204.900 L 41.000 207.000 43.100 205.015 C 44.255 203.923,45.200 202.978,45.200 202.915 C 45.200 202.617,44.829 202.949,42.985 204.900 M177.375 210.900 L 176.200 212.200 177.500 211.025 C 178.712 209.930,178.984 209.600,178.675 209.600 C 178.606 209.600,178.021 210.185,177.375 210.900 M52.985 215.700 L 51.000 217.800 53.100 215.815 C 54.255 214.723,55.200 213.778,55.200 213.715 C 55.200 213.417,54.829 213.749,52.985 215.700 M346.581 247.300 L 345.000 249.000 346.700 247.419 C 347.635 246.549,348.400 245.784,348.400 245.719 C 348.400 245.416,348.052 245.719,346.581 247.300 M357.375 257.300 L 356.200 258.600 357.500 257.425 C 358.712 256.330,358.984 256.000,358.675 256.000 C 358.606 256.000,358.021 256.585,357.375 257.300 M180.707 285.890 C 181.426 285.979,182.506 285.977,183.107 285.886 C 183.708 285.795,183.120 285.722,181.800 285.724 C 180.480 285.726,179.988 285.801,180.707 285.890 M216.500 285.887 C 217.105 285.978,218.095 285.978,218.700 285.887 C 219.305 285.795,218.810 285.720,217.600 285.720 C 216.390 285.720,215.895 285.795,216.500 285.887 M195.100 286.298 C 197.355 286.370,201.045 286.370,203.300 286.298 C 205.555 286.227,203.710 286.169,199.200 286.169 C 194.690 286.169,192.845 286.227,195.100 286.298 M181.505 300.683 C 182.002 300.779,182.722 300.775,183.105 300.675 C 183.487 300.575,183.080 300.496,182.200 300.501 C 181.320 300.505,181.007 300.587,181.505 300.683 M216.105 300.687 C 216.714 300.779,217.614 300.777,218.105 300.682 C 218.597 300.587,218.100 300.511,217.000 300.514 C 215.900 300.517,215.497 300.595,216.105 300.687 M304.561 328.800 C 304.561 332.210,304.622 333.605,304.697 331.900 C 304.772 330.195,304.772 327.405,304.697 325.700 C 304.622 323.995,304.561 325.390,304.561 328.800 M95.751 330.400 C 95.751 332.930,95.816 333.965,95.896 332.700 C 95.975 331.435,95.975 329.365,95.896 328.100 C 95.816 326.835,95.751 327.870,95.751 330.400 M203.600 348.525 C 203.600 348.594,204.185 349.179,204.900 349.825 L 206.200 351.000 205.025 349.700 C 203.930 348.488,203.600 348.216,203.600 348.525 M130.100 367.887 C 130.705 367.978,131.695 367.978,132.300 367.887 C 132.905 367.795,132.410 367.720,131.200 367.720 C 129.990 367.720,129.495 367.795,130.100 367.887 M130.305 382.683 C 130.802 382.779,131.522 382.775,131.905 382.675 C 132.287 382.575,131.880 382.496,131.000 382.501 C 130.120 382.505,129.807 382.587,130.305 382.683 M265.700 382.676 C 266.085 382.776,266.715 382.776,267.100 382.676 C 267.485 382.575,267.170 382.493,266.400 382.493 C 265.630 382.493,265.315 382.575,265.700 382.676 " stroke="none" fill="#156573" fill-rule="evenodd"></path><path id="path3" d="M117.600 83.400 C 117.050 83.714,116.780 83.972,117.000 83.972 C 117.220 83.972,117.850 83.714,118.400 83.400 C 118.950 83.086,119.220 82.828,119.000 82.828 C 118.780 82.828,118.150 83.086,117.600 83.400 M290.000 89.000 C 291.195 90.210,292.263 91.200,292.373 91.200 C 292.483 91.200,291.595 90.210,290.400 89.000 C 289.205 87.790,288.137 86.800,288.027 86.800 C 287.917 86.800,288.805 87.790,290.000 89.000 M108.778 89.500 L 107.400 91.000 108.900 89.622 C 109.725 88.863,110.400 88.188,110.400 88.122 C 110.400 87.816,110.062 88.104,108.778 89.500 M268.105 95.087 C 268.714 95.179,269.614 95.177,270.105 95.082 C 270.597 94.987,270.100 94.911,269.000 94.914 C 267.900 94.917,267.497 94.995,268.105 95.087 M129.091 95.489 C 129.801 95.577,131.061 95.579,131.891 95.492 C 132.721 95.405,132.140 95.333,130.600 95.331 C 129.060 95.329,128.381 95.400,129.091 95.489 M296.600 98.000 C 296.941 98.660,297.311 99.200,297.421 99.200 C 297.531 99.200,297.341 98.660,297.000 98.000 C 296.659 97.340,296.289 96.800,296.179 96.800 C 296.069 96.800,296.259 97.340,296.600 98.000 M118.981 99.700 L 117.400 101.400 119.100 99.819 C 120.681 98.348,120.984 98.000,120.681 98.000 C 120.616 98.000,119.851 98.765,118.981 99.700 M151.200 101.000 C 151.750 101.314,152.380 101.572,152.600 101.572 C 152.820 101.572,152.550 101.314,152.000 101.000 C 151.450 100.686,150.820 100.428,150.600 100.428 C 150.380 100.428,150.650 100.686,151.200 101.000 M205.775 112.900 L 204.600 114.200 205.900 113.025 C 206.615 112.379,207.200 111.794,207.200 111.725 C 207.200 111.416,206.870 111.688,205.775 112.900 M195.400 114.000 C 196.259 114.880,197.052 115.600,197.162 115.600 C 197.272 115.600,196.659 114.880,195.800 114.000 C 194.941 113.120,194.148 112.400,194.038 112.400 C 193.928 112.400,194.541 113.120,195.400 114.000 M201.578 116.700 L 200.200 118.200 201.700 116.822 C 202.525 116.063,203.200 115.388,203.200 115.322 C 203.200 115.016,202.862 115.304,201.578 116.700 M216.378 122.700 L 215.000 124.200 216.500 122.822 C 217.896 121.538,218.184 121.200,217.878 121.200 C 217.812 121.200,217.137 121.875,216.378 122.700 M187.600 126.125 C 187.600 126.194,188.185 126.779,188.900 127.425 L 190.200 128.600 189.025 127.300 C 187.930 126.088,187.600 125.816,187.600 126.125 M211.375 127.300 L 210.200 128.600 211.500 127.425 C 212.215 126.779,212.800 126.194,212.800 126.125 C 212.800 125.816,212.470 126.088,211.375 127.300 M303.731 129.800 C 303.733 131.340,303.805 131.921,303.892 131.091 C 303.979 130.261,303.977 129.001,303.889 128.291 C 303.800 127.581,303.729 128.260,303.731 129.800 M289.359 133.600 C 289.359 136.790,289.421 138.095,289.497 136.500 C 289.573 134.905,289.573 132.295,289.497 130.700 C 289.421 129.105,289.359 130.410,289.359 133.600 M210.800 129.325 C 210.800 129.394,211.385 129.979,212.100 130.625 L 213.400 131.800 212.225 130.500 C 211.130 129.288,210.800 129.016,210.800 129.325 M187.381 131.300 L 185.800 133.000 187.500 131.419 C 189.081 129.948,189.384 129.600,189.081 129.600 C 189.016 129.600,188.251 130.365,187.381 131.300 M184.378 134.700 L 183.000 136.200 184.500 134.822 C 185.325 134.063,186.000 133.388,186.000 133.322 C 186.000 133.016,185.662 133.304,184.378 134.700 M303.734 137.200 C 303.734 138.850,303.805 139.525,303.891 138.700 C 303.978 137.875,303.978 136.525,303.891 135.700 C 303.805 134.875,303.734 135.550,303.734 137.200 M110.501 139.000 C 110.505 139.880,110.587 140.193,110.683 139.695 C 110.779 139.198,110.775 138.478,110.675 138.095 C 110.575 137.713,110.496 138.120,110.501 139.000 M96.093 140.000 C 96.093 140.770,96.175 141.085,96.276 140.700 C 96.376 140.315,96.376 139.685,96.276 139.300 C 96.175 138.915,96.093 139.230,96.093 140.000 M201.200 140.125 C 201.200 140.194,201.785 140.779,202.500 141.425 L 203.800 142.600 202.625 141.300 C 201.530 140.088,201.200 139.816,201.200 140.125 M196.975 142.100 L 195.800 143.400 197.100 142.225 C 197.815 141.579,198.400 140.994,198.400 140.925 C 198.400 140.616,198.070 140.888,196.975 142.100 M97.293 152.400 C 97.293 153.170,97.375 153.485,97.476 153.100 C 97.576 152.715,97.576 152.085,97.476 151.700 C 97.375 151.315,97.293 151.630,97.293 152.400 M112.095 154.400 C 112.095 154.950,112.232 155.940,112.400 156.600 C 112.672 157.670,112.705 157.692,112.705 156.800 C 112.705 156.250,112.568 155.260,112.400 154.600 C 112.128 153.530,112.095 153.508,112.095 154.400 M219.100 161.599 C 219.912 162.510,219.695 162.745,217.900 162.907 L 216.200 163.060 218.100 163.130 C 220.147 163.205,220.631 162.576,219.300 161.568 C 218.704 161.118,218.675 161.122,219.100 161.599 M180.267 162.267 C 179.589 162.945,180.179 163.194,182.300 163.126 L 184.600 163.052 182.490 162.905 C 181.297 162.822,180.481 162.593,180.613 162.379 C 180.882 161.943,180.661 161.872,180.267 162.267 M194.325 162.699 C 197.693 162.766,203.093 162.766,206.325 162.699 C 209.556 162.632,206.800 162.577,200.200 162.577 C 193.600 162.577,190.956 162.632,194.325 162.699 M153.700 165.076 C 154.085 165.176,154.715 165.176,155.100 165.076 C 155.485 164.975,155.170 164.893,154.400 164.893 C 153.630 164.893,153.315 164.975,153.700 165.076 M244.900 165.076 C 245.285 165.176,245.915 165.176,246.300 165.076 C 246.685 164.975,246.370 164.893,245.600 164.893 C 244.830 164.893,244.515 164.975,244.900 165.076 M150.305 165.483 C 150.802 165.579,151.522 165.575,151.905 165.475 C 152.287 165.375,151.880 165.296,151.000 165.301 C 150.120 165.305,149.807 165.387,150.305 165.483 M248.100 165.476 C 248.485 165.576,249.115 165.576,249.500 165.476 C 249.885 165.375,249.570 165.293,248.800 165.293 C 248.030 165.293,247.715 165.375,248.100 165.476 M251.300 165.876 C 251.685 165.976,252.315 165.976,252.700 165.876 C 253.085 165.775,252.770 165.693,252.000 165.693 C 251.230 165.693,250.915 165.775,251.300 165.876 M192.674 177.099 C 196.455 177.165,202.755 177.165,206.674 177.099 C 210.593 177.034,207.500 176.980,199.800 176.980 C 192.100 176.980,188.893 177.034,192.674 177.099 M178.512 177.495 C 179.564 177.577,181.184 177.576,182.112 177.492 C 183.040 177.408,182.180 177.341,180.200 177.342 C 178.220 177.343,177.460 177.412,178.512 177.495 M218.112 177.495 C 219.164 177.577,220.784 177.576,221.712 177.492 C 222.640 177.408,221.780 177.341,219.800 177.342 C 217.820 177.343,217.060 177.412,218.112 177.495 M172.100 177.887 C 172.705 177.978,173.695 177.978,174.300 177.887 C 174.905 177.795,174.410 177.720,173.200 177.720 C 171.990 177.720,171.495 177.795,172.100 177.887 M225.700 177.887 C 226.305 177.978,227.295 177.978,227.900 177.887 C 228.505 177.795,228.010 177.720,226.800 177.720 C 225.590 177.720,225.095 177.795,225.700 177.887 M231.600 179.200 C 232.070 179.860,232.544 180.400,232.654 180.400 C 232.764 180.400,232.470 179.860,232.000 179.200 C 231.530 178.540,231.056 178.000,230.946 178.000 C 230.836 178.000,231.130 178.540,231.600 179.200 M147.300 180.276 C 147.685 180.376,148.315 180.376,148.700 180.276 C 149.085 180.175,148.770 180.093,148.000 180.093 C 147.230 180.093,146.915 180.175,147.300 180.276 M78.000 183.000 C 77.450 183.314,77.180 183.572,77.400 183.572 C 77.620 183.572,78.250 183.314,78.800 183.000 C 79.350 182.686,79.620 182.428,79.400 182.428 C 79.180 182.428,78.550 182.686,78.000 183.000 M103.400 189.200 C 102.896 189.417,102.822 189.544,103.200 189.544 C 103.530 189.544,104.160 189.389,104.600 189.200 C 105.104 188.983,105.178 188.856,104.800 188.856 C 104.470 188.856,103.840 189.011,103.400 189.200 M242.749 196.600 C 242.965 197.040,243.434 197.760,243.793 198.200 L 244.444 199.000 244.051 198.200 C 243.835 197.760,243.366 197.040,243.007 196.600 L 242.356 195.800 242.749 196.600 M80.000 197.800 C 79.450 198.114,79.180 198.372,79.400 198.372 C 79.620 198.372,80.250 198.114,80.800 197.800 C 81.350 197.486,81.620 197.228,81.400 197.228 C 81.180 197.228,80.550 197.486,80.000 197.800 M108.629 198.400 C 108.776 198.950,109.064 199.670,109.267 200.000 C 109.525 200.417,109.557 200.295,109.371 199.600 C 109.224 199.050,108.936 198.330,108.733 198.000 C 108.475 197.583,108.443 197.705,108.629 198.400 M45.781 202.500 L 44.200 204.200 45.900 202.619 C 47.481 201.148,47.784 200.800,47.481 200.800 C 47.416 200.800,46.651 201.565,45.781 202.500 M188.000 203.400 C 187.450 203.714,187.180 203.972,187.400 203.972 C 187.620 203.972,188.250 203.714,188.800 203.400 C 189.350 203.086,189.620 202.828,189.400 202.828 C 189.180 202.828,188.550 203.086,188.000 203.400 M211.200 203.400 C 211.750 203.714,212.380 203.972,212.600 203.972 C 212.820 203.972,212.550 203.714,212.000 203.400 C 211.450 203.086,210.820 202.828,210.600 202.828 C 210.380 202.828,210.650 203.086,211.200 203.400 M356.400 205.000 C 357.595 206.210,358.663 207.200,358.773 207.200 C 358.883 207.200,357.995 206.210,356.800 205.000 C 355.605 203.790,354.537 202.800,354.427 202.800 C 354.317 202.800,355.205 203.790,356.400 205.000 M347.000 216.000 C 348.306 217.320,349.465 218.400,349.575 218.400 C 349.685 218.400,348.706 217.320,347.400 216.000 C 346.094 214.680,344.935 213.600,344.825 213.600 C 344.715 213.600,345.694 214.680,347.000 216.000 M144.600 218.400 C 144.259 219.060,144.069 219.600,144.179 219.600 C 144.289 219.600,144.659 219.060,145.000 218.400 C 145.341 217.740,145.531 217.200,145.421 217.200 C 145.311 217.200,144.941 217.740,144.600 218.400 M169.709 229.600 C 169.709 230.590,169.787 230.995,169.882 230.500 C 169.978 230.005,169.978 229.195,169.882 228.700 C 169.787 228.205,169.709 228.610,169.709 229.600 M369.728 231.200 C 369.728 232.630,369.801 233.215,369.889 232.500 C 369.978 231.785,369.978 230.615,369.889 229.900 C 369.801 229.185,369.728 229.770,369.728 231.200 M30.124 231.400 C 30.126 232.720,30.201 233.212,30.290 232.493 C 30.379 231.774,30.377 230.694,30.286 230.093 C 30.195 229.492,30.122 230.080,30.124 231.400 M44.509 231.200 C 44.509 232.190,44.587 232.595,44.682 232.100 C 44.778 231.605,44.778 230.795,44.682 230.300 C 44.587 229.805,44.509 230.210,44.509 231.200 M355.309 231.200 C 355.309 232.190,355.387 232.595,355.482 232.100 C 355.578 231.605,355.578 230.795,355.482 230.300 C 355.387 229.805,355.309 230.210,355.309 231.200 M169.709 233.200 C 169.709 234.190,169.787 234.595,169.882 234.100 C 169.978 233.605,169.978 232.795,169.882 232.300 C 169.787 231.805,169.709 232.210,169.709 233.200 M230.093 233.600 C 230.093 234.370,230.175 234.685,230.276 234.300 C 230.376 233.915,230.376 233.285,230.276 232.900 C 230.175 232.515,230.093 232.830,230.093 233.600 M120.672 234.619 C 119.732 236.589,119.864 236.924,120.847 235.062 C 121.293 234.216,121.587 233.454,121.501 233.367 C 121.414 233.281,121.041 233.844,120.672 234.619 M141.400 238.800 C 141.741 239.460,142.111 240.000,142.221 240.000 C 142.331 240.000,142.141 239.460,141.800 238.800 C 141.459 238.140,141.089 237.600,140.979 237.600 C 140.869 237.600,141.059 238.140,141.400 238.800 M170.406 238.233 C 170.409 238.655,170.595 239.270,170.818 239.600 C 171.115 240.038,171.152 239.876,170.956 239.000 C 170.627 237.529,170.398 237.210,170.406 238.233 M229.029 239.029 C 228.881 239.615,228.838 240.172,228.932 240.266 C 229.027 240.360,229.224 239.958,229.371 239.371 C 229.519 238.785,229.562 238.228,229.468 238.134 C 229.373 238.040,229.176 238.442,229.029 239.029 M257.800 239.600 C 257.459 240.260,257.269 240.800,257.379 240.800 C 257.489 240.800,257.859 240.260,258.200 239.600 C 258.541 238.940,258.731 238.400,258.621 238.400 C 258.511 238.400,258.141 238.940,257.800 239.600 M281.228 238.600 C 281.228 238.820,281.486 239.450,281.800 240.000 C 282.114 240.550,282.372 240.820,282.372 240.600 C 282.372 240.380,282.114 239.750,281.800 239.200 C 281.486 238.650,281.228 238.380,281.228 238.600 M32.800 243.353 C 32.800 243.782,33.990 246.000,34.221 246.000 C 34.331 246.000,34.123 245.415,33.759 244.700 C 33.017 243.240,32.800 242.936,32.800 243.353 M53.800 248.400 C 55.550 250.160,57.071 251.600,57.181 251.600 C 57.291 251.600,55.950 250.160,54.200 248.400 C 52.450 246.640,50.929 245.200,50.819 245.200 C 50.709 245.200,52.050 246.640,53.800 248.400 M343.578 250.300 L 342.200 251.800 343.700 250.422 C 344.525 249.663,345.200 248.988,345.200 248.922 C 345.200 248.616,344.862 248.904,343.578 250.300 M178.400 252.600 C 179.595 253.810,180.663 254.800,180.773 254.800 C 180.883 254.800,179.995 253.810,178.800 252.600 C 177.605 251.390,176.537 250.400,176.427 250.400 C 176.317 250.400,177.205 251.390,178.400 252.600 M358.378 255.900 L 357.000 257.400 358.500 256.022 C 359.896 254.738,360.184 254.400,359.878 254.400 C 359.812 254.400,359.137 255.075,358.378 255.900 M43.400 258.400 C 44.706 259.720,45.865 260.800,45.975 260.800 C 46.085 260.800,45.106 259.720,43.800 258.400 C 42.494 257.080,41.335 256.000,41.225 256.000 C 41.115 256.000,42.094 257.080,43.400 258.400 M354.175 260.100 L 353.000 261.400 354.300 260.225 C 355.015 259.579,355.600 258.994,355.600 258.925 C 355.600 258.616,355.270 258.888,354.175 260.100 M238.153 274.100 C 236.776 276.436,236.686 276.635,237.387 275.800 C 238.200 274.832,238.900 273.600,238.638 273.600 C 238.533 273.600,238.315 273.825,238.153 274.100 M295.063 274.100 C 295.305 274.494,296.465 274.473,297.111 274.063 C 297.426 273.864,297.096 273.751,296.251 273.770 C 295.497 273.786,294.962 273.935,295.063 274.100 M69.600 276.579 C 69.600 276.689,70.140 277.059,70.800 277.400 C 71.460 277.741,72.000 277.931,72.000 277.821 C 72.000 277.711,71.460 277.341,70.800 277.000 C 70.140 276.659,69.600 276.469,69.600 276.579 M327.900 277.029 C 326.349 277.870,326.525 278.161,328.100 277.359 C 329.608 276.593,329.875 276.394,329.367 276.416 C 329.165 276.425,328.505 276.701,327.900 277.029 M123.000 279.600 C 123.440 279.789,124.160 279.938,124.600 279.932 C 125.243 279.923,125.204 279.857,124.400 279.600 C 123.032 279.162,121.981 279.162,123.000 279.600 M84.400 283.400 C 84.950 283.714,85.580 283.972,85.800 283.972 C 86.020 283.972,85.750 283.714,85.200 283.400 C 84.650 283.086,84.020 282.828,83.800 282.828 C 83.580 282.828,83.850 283.086,84.400 283.400 M168.749 284.900 C 169.114 285.365,169.785 285.579,170.749 285.536 L 172.200 285.472 170.802 285.303 C 170.032 285.211,169.132 284.924,168.802 284.667 C 168.278 284.260,168.271 284.290,168.749 284.900 M227.700 285.487 C 228.305 285.578,229.295 285.578,229.900 285.487 C 230.505 285.395,230.010 285.320,228.800 285.320 C 227.590 285.320,227.095 285.395,227.700 285.487 M175.111 285.893 C 176.051 285.978,177.491 285.977,178.311 285.891 C 179.130 285.805,178.360 285.736,176.600 285.737 C 174.840 285.739,174.170 285.809,175.111 285.893 M220.900 285.891 C 221.725 285.978,223.075 285.978,223.900 285.891 C 224.725 285.805,224.050 285.734,222.400 285.734 C 220.750 285.734,220.075 285.805,220.900 285.891 M305.400 286.214 C 304.400 286.696,304.366 286.751,305.200 286.548 C 306.333 286.271,307.607 285.621,307.000 285.630 C 306.780 285.633,306.060 285.896,305.400 286.214 M185.100 286.295 C 186.255 286.376,188.145 286.376,189.300 286.295 C 190.455 286.214,189.510 286.148,187.200 286.148 C 184.890 286.148,183.945 286.214,185.100 286.295 M209.516 286.297 C 210.899 286.375,213.059 286.374,214.316 286.295 C 215.572 286.216,214.440 286.152,211.800 286.153 C 209.160 286.153,208.132 286.218,209.516 286.297 M143.505 297.483 C 144.002 297.579,144.722 297.575,145.105 297.475 C 145.487 297.375,145.080 297.296,144.200 297.301 C 143.320 297.305,143.007 297.387,143.505 297.483 M253.300 297.476 C 253.685 297.576,254.315 297.576,254.700 297.476 C 255.085 297.375,254.770 297.293,254.000 297.293 C 253.230 297.293,252.915 297.375,253.300 297.476 M146.500 297.876 C 146.885 297.976,147.515 297.976,147.900 297.876 C 148.285 297.775,147.970 297.693,147.200 297.693 C 146.430 297.693,146.115 297.775,146.500 297.876 M238.744 299.500 C 237.643 300.829,237.403 301.428,238.400 300.358 C 238.950 299.768,239.670 299.190,240.000 299.074 C 240.508 298.896,240.502 298.858,239.962 298.832 C 239.611 298.814,239.063 299.115,238.744 299.500 M218.900 300.287 C 220.115 300.471,220.248 300.762,219.500 301.601 C 219.075 302.078,219.104 302.082,219.700 301.632 C 220.854 300.759,220.562 299.993,219.100 300.060 C 217.890 300.116,217.876 300.131,218.900 300.287 M191.273 300.699 C 195.604 300.764,202.804 300.764,207.273 300.700 C 211.743 300.635,208.200 300.582,199.400 300.582 C 190.600 300.582,186.943 300.635,191.273 300.699 M232.000 308.800 C 231.530 309.460,231.236 310.000,231.346 310.000 C 231.456 310.000,231.930 309.460,232.400 308.800 C 232.870 308.140,233.164 307.600,233.054 307.600 C 232.944 307.600,232.470 308.140,232.000 308.800 M97.293 310.400 C 97.293 311.170,97.375 311.485,97.476 311.100 C 97.576 310.715,97.576 310.085,97.476 309.700 C 97.375 309.315,97.293 309.630,97.293 310.400 M205.375 319.300 L 204.200 320.600 205.500 319.425 C 206.215 318.779,206.800 318.194,206.800 318.125 C 206.800 317.816,206.470 318.088,205.375 319.300 M289.720 320.400 C 289.720 321.610,289.795 322.105,289.887 321.500 C 289.978 320.895,289.978 319.905,289.887 319.300 C 289.795 318.695,289.720 319.190,289.720 320.400 M304.114 320.200 C 304.117 321.300,304.195 321.703,304.287 321.095 C 304.379 320.486,304.377 319.586,304.282 319.095 C 304.187 318.603,304.111 319.100,304.114 320.200 M96.093 321.600 C 96.093 322.370,96.175 322.685,96.276 322.300 C 96.376 321.915,96.376 321.285,96.276 320.900 C 96.175 320.515,96.093 320.830,96.093 321.600 M196.400 320.525 C 196.400 320.594,196.985 321.179,197.700 321.825 L 199.000 323.000 197.825 321.700 C 196.730 320.488,196.400 320.216,196.400 320.525 M202.575 322.500 L 201.400 323.800 202.700 322.625 C 203.912 321.530,204.184 321.200,203.875 321.200 C 203.806 321.200,203.221 321.785,202.575 322.500 M110.493 322.800 C 110.493 323.570,110.575 323.885,110.676 323.500 C 110.776 323.115,110.776 322.485,110.676 322.100 C 110.575 321.715,110.493 322.030,110.493 322.800 M290.153 328.600 C 290.153 331.240,290.218 332.268,290.297 330.884 C 290.375 329.501,290.374 327.341,290.295 326.084 C 290.216 324.828,290.152 325.960,290.153 328.600 M183.600 327.725 C 183.600 327.794,184.185 328.379,184.900 329.025 L 186.200 330.200 185.025 328.900 C 183.930 327.688,183.600 327.416,183.600 327.725 M186.400 330.925 C 186.400 330.994,186.985 331.579,187.700 332.225 L 189.000 333.400 187.825 332.100 C 186.730 330.888,186.400 330.616,186.400 330.925 M210.800 335.047 C 210.800 335.256,211.835 336.411,213.100 337.614 L 215.400 339.800 213.200 337.409 C 211.990 336.094,210.955 334.939,210.900 334.843 C 210.845 334.746,210.800 334.838,210.800 335.047 M289.714 336.600 C 289.717 337.700,289.795 338.103,289.887 337.495 C 289.979 336.886,289.977 335.986,289.882 335.495 C 289.787 335.003,289.711 335.500,289.714 336.600 M304.093 336.800 C 304.093 337.570,304.175 337.885,304.276 337.500 C 304.376 337.115,304.376 336.485,304.276 336.100 C 304.175 335.715,304.093 336.030,304.093 336.800 M186.981 338.500 L 185.400 340.200 187.100 338.619 C 188.681 337.148,188.984 336.800,188.681 336.800 C 188.616 336.800,187.851 337.565,186.981 338.500 M200.438 345.700 C 200.532 345.755,201.327 346.430,202.204 347.200 L 203.800 348.600 202.422 347.100 C 201.663 346.275,200.868 345.600,200.655 345.600 C 200.441 345.600,200.344 345.645,200.438 345.700 M198.181 347.700 L 196.600 349.400 198.300 347.819 C 199.881 346.348,200.184 346.000,199.881 346.000 C 199.816 346.000,199.051 346.765,198.181 347.700 M205.600 350.125 C 205.600 350.194,206.185 350.779,206.900 351.425 L 208.200 352.600 207.025 351.300 C 205.930 350.088,205.600 349.816,205.600 350.125 M193.775 351.700 L 192.600 353.000 193.900 351.825 C 195.112 350.730,195.384 350.400,195.075 350.400 C 195.006 350.400,194.421 350.985,193.775 351.700 M284.278 358.205 C 283.912 358.972,283.695 359.600,283.796 359.600 C 284.070 359.600,285.284 357.151,285.101 356.968 C 285.014 356.881,284.644 357.438,284.278 358.205 M245.200 360.997 C 245.200 361.268,248.449 362.884,248.630 362.703 C 248.714 362.619,247.976 362.159,246.991 361.681 C 246.006 361.202,245.200 360.894,245.200 360.997 M119.000 363.600 C 119.859 364.480,120.652 365.200,120.762 365.200 C 120.872 365.200,120.259 364.480,119.400 363.600 C 118.541 362.720,117.748 362.000,117.638 362.000 C 117.528 362.000,118.141 362.720,119.000 363.600 M280.175 364.100 L 279.000 365.400 280.300 364.225 C 281.015 363.579,281.600 362.994,281.600 362.925 C 281.600 362.616,281.270 362.888,280.175 364.100 M127.300 367.876 C 127.685 367.976,128.315 367.976,128.700 367.876 C 129.085 367.775,128.770 367.693,128.000 367.693 C 127.230 367.693,126.915 367.775,127.300 367.876 M133.905 367.883 C 134.402 367.979,135.122 367.975,135.505 367.875 C 135.887 367.775,135.480 367.696,134.600 367.701 C 133.720 367.705,133.407 367.787,133.905 367.883 M268.105 368.287 C 268.714 368.379,269.614 368.377,270.105 368.282 C 270.597 368.187,270.100 368.111,269.000 368.114 C 267.900 368.117,267.497 368.195,268.105 368.287 M108.000 372.925 C 108.000 372.994,108.585 373.579,109.300 374.225 L 110.600 375.400 109.425 374.100 C 108.330 372.888,108.000 372.616,108.000 372.925 M128.900 382.296 C 130.165 382.375,132.235 382.375,133.500 382.296 C 134.765 382.216,133.730 382.151,131.200 382.151 C 128.670 382.151,127.635 382.216,128.900 382.296 M264.100 382.276 C 264.485 382.376,265.115 382.376,265.500 382.276 C 265.885 382.175,265.570 382.093,264.800 382.093 C 264.030 382.093,263.715 382.175,264.100 382.276 M272.100 382.276 C 272.485 382.376,273.115 382.376,273.500 382.276 C 273.885 382.175,273.570 382.093,272.800 382.093 C 272.030 382.093,271.715 382.175,272.100 382.276 M268.300 382.682 C 268.795 382.778,269.605 382.778,270.100 382.682 C 270.595 382.587,270.190 382.509,269.200 382.509 C 268.210 382.509,267.805 382.587,268.300 382.682 " stroke="none" fill="#147c94" fill-rule="evenodd"></path><path id="path4" d="M125.700 81.076 C 126.085 81.176,126.715 81.176,127.100 81.076 C 127.485 80.975,127.170 80.893,126.400 80.893 C 125.630 80.893,125.315 80.975,125.700 81.076 M134.305 81.083 C 134.802 81.179,135.522 81.175,135.905 81.075 C 136.287 80.975,135.880 80.896,135.000 80.901 C 134.120 80.905,133.807 80.987,134.305 81.083 M108.575 89.300 L 107.400 90.600 108.700 89.425 C 109.912 88.330,110.184 88.000,109.875 88.000 C 109.806 88.000,109.221 88.585,108.575 89.300 M268.500 95.476 C 268.885 95.576,269.515 95.576,269.900 95.476 C 270.285 95.375,269.970 95.293,269.200 95.293 C 268.430 95.293,268.115 95.375,268.500 95.476 M195.200 113.400 C 195.946 114.170,196.647 114.800,196.757 114.800 C 196.867 114.800,196.346 114.170,195.600 113.400 C 194.854 112.630,194.153 112.000,194.043 112.000 C 193.933 112.000,194.454 112.630,195.200 113.400 M204.975 113.300 L 203.800 114.600 205.100 113.425 C 205.815 112.779,206.400 112.194,206.400 112.125 C 206.400 111.816,206.070 112.088,204.975 113.300 M215.978 123.500 L 214.600 125.000 216.100 123.622 C 217.496 122.338,217.784 122.000,217.478 122.000 C 217.412 122.000,216.737 122.675,215.978 123.500 M183.600 122.925 C 183.600 122.994,184.185 123.579,184.900 124.225 L 186.200 125.400 185.025 124.100 C 183.930 122.888,183.600 122.616,183.600 122.925 M95.742 127.800 C 95.741 129.780,95.808 130.640,95.892 129.712 C 95.976 128.784,95.977 127.164,95.895 126.112 C 95.812 125.060,95.743 125.820,95.742 127.800 M212.181 126.900 L 210.600 128.600 212.300 127.019 C 213.881 125.548,214.184 125.200,213.881 125.200 C 213.816 125.200,213.051 125.965,212.181 126.900 M304.163 133.600 C 304.163 137.230,304.223 138.715,304.298 136.900 C 304.372 135.085,304.372 132.115,304.298 130.300 C 304.223 128.485,304.163 129.970,304.163 133.600 M110.531 132.600 C 110.533 134.140,110.605 134.721,110.692 133.891 C 110.779 133.061,110.777 131.801,110.689 131.091 C 110.600 130.381,110.529 131.060,110.531 132.600 M95.750 136.200 C 95.751 138.620,95.816 139.558,95.896 138.285 C 95.976 137.012,95.975 135.032,95.894 133.885 C 95.814 132.738,95.749 133.780,95.750 136.200 M196.575 142.900 L 195.400 144.200 196.700 143.025 C 197.912 141.930,198.184 141.600,197.875 141.600 C 197.806 141.600,197.221 142.185,196.575 142.900 M111.301 145.800 C 111.305 146.680,111.387 146.993,111.483 146.495 C 111.579 145.998,111.575 145.278,111.475 144.895 C 111.375 144.513,111.296 144.920,111.301 145.800 M288.101 149.400 C 288.105 150.280,288.187 150.593,288.283 150.095 C 288.379 149.598,288.375 148.878,288.275 148.495 C 288.175 148.113,288.096 148.520,288.101 149.400 M218.945 161.911 C 219.107 162.173,218.774 162.412,218.107 162.513 C 217.068 162.670,217.080 162.684,218.300 162.740 C 219.594 162.800,220.018 162.305,219.138 161.762 C 218.862 161.591,218.785 161.651,218.945 161.911 M199.717 162.297 C 201.211 162.374,203.551 162.374,204.917 162.296 C 206.282 162.218,205.060 162.155,202.200 162.155 C 199.340 162.156,198.222 162.220,199.717 162.297 M181.100 162.682 C 181.595 162.778,182.405 162.778,182.900 162.682 C 183.395 162.587,182.990 162.509,182.000 162.509 C 181.010 162.509,180.605 162.587,181.100 162.682 M188.291 177.489 C 189.001 177.577,190.261 177.579,191.091 177.492 C 191.921 177.405,191.340 177.333,189.800 177.331 C 188.260 177.329,187.581 177.400,188.291 177.489 M208.691 177.489 C 209.401 177.577,210.661 177.579,211.491 177.492 C 212.321 177.405,211.740 177.333,210.200 177.331 C 208.660 177.329,207.981 177.400,208.691 177.489 M177.300 177.876 C 177.685 177.976,178.315 177.976,178.700 177.876 C 179.085 177.775,178.770 177.693,178.000 177.693 C 177.230 177.693,176.915 177.775,177.300 177.876 M220.900 177.876 C 221.285 177.976,221.915 177.976,222.300 177.876 C 222.685 177.775,222.370 177.693,221.600 177.693 C 220.830 177.693,220.515 177.775,220.900 177.876 M76.300 199.829 C 74.805 200.640,74.896 200.978,76.400 200.200 C 77.060 199.859,77.600 199.494,77.600 199.390 C 77.600 199.132,77.557 199.147,76.300 199.829 M356.600 204.800 C 357.683 205.900,358.660 206.800,358.770 206.800 C 358.880 206.800,358.083 205.900,357.000 204.800 C 355.917 203.700,354.940 202.800,354.830 202.800 C 354.720 202.800,355.517 203.700,356.600 204.800 M39.775 208.100 L 38.600 209.400 39.900 208.225 C 41.112 207.130,41.384 206.800,41.075 206.800 C 41.006 206.800,40.421 207.385,39.775 208.100 M345.400 214.800 C 346.259 215.680,347.052 216.400,347.162 216.400 C 347.272 216.400,346.659 215.680,345.800 214.800 C 344.941 213.920,344.148 213.200,344.038 213.200 C 343.928 213.200,344.541 213.920,345.400 214.800 M44.909 231.200 C 44.909 232.190,44.987 232.595,45.082 232.100 C 45.178 231.605,45.178 230.795,45.082 230.300 C 44.987 229.805,44.909 230.210,44.909 231.200 M354.914 231.400 C 354.917 232.500,354.995 232.903,355.087 232.295 C 355.179 231.686,355.177 230.786,355.082 230.295 C 354.987 229.803,354.911 230.300,354.914 231.400 M368.444 240.044 C 368.198 240.751,368.066 241.400,368.152 241.485 C 368.238 241.571,368.509 241.062,368.756 240.356 C 369.002 239.649,369.134 239.000,369.048 238.915 C 368.962 238.829,368.691 239.338,368.444 240.044 M53.183 247.300 C 54.164 248.345,55.019 249.200,55.083 249.200 C 55.384 249.200,55.066 248.841,53.300 247.183 L 51.400 245.400 53.183 247.300 M178.000 252.600 C 179.195 253.810,180.263 254.800,180.373 254.800 C 180.483 254.800,179.595 253.810,178.400 252.600 C 177.205 251.390,176.137 250.400,176.027 250.400 C 175.917 250.400,176.805 251.390,178.000 252.600 M222.378 251.900 L 221.000 253.400 222.500 252.022 C 223.896 250.738,224.184 250.400,223.878 250.400 C 223.812 250.400,223.137 251.075,222.378 251.900 M43.400 258.800 C 44.706 260.120,45.865 261.200,45.975 261.200 C 46.085 261.200,45.106 260.120,43.800 258.800 C 42.494 257.480,41.335 256.400,41.225 256.400 C 41.115 256.400,42.094 257.480,43.400 258.800 M198.100 261.894 C 199.145 261.976,200.855 261.976,201.900 261.894 C 202.945 261.812,202.090 261.744,200.000 261.744 C 197.910 261.744,197.055 261.812,198.100 261.894 M174.500 285.476 C 174.885 285.576,175.515 285.576,175.900 285.476 C 176.285 285.375,175.970 285.293,175.200 285.293 C 174.430 285.293,174.115 285.375,174.500 285.476 M222.705 285.483 C 223.202 285.579,223.922 285.575,224.305 285.475 C 224.687 285.375,224.280 285.296,223.400 285.301 C 222.520 285.305,222.207 285.387,222.705 285.483 M185.511 285.893 C 186.451 285.978,187.891 285.977,188.711 285.891 C 189.530 285.805,188.760 285.736,187.000 285.737 C 185.240 285.739,184.570 285.809,185.511 285.893 M210.512 285.895 C 211.564 285.977,213.184 285.976,214.112 285.892 C 215.040 285.808,214.180 285.741,212.200 285.742 C 210.220 285.743,209.460 285.812,210.512 285.895 M158.400 299.358 C 158.400 299.445,159.105 299.583,159.966 299.665 C 160.828 299.748,161.447 299.676,161.343 299.507 C 161.153 299.200,158.400 299.060,158.400 299.358 M195.323 301.099 C 197.920 301.169,202.060 301.168,204.523 301.098 C 206.985 301.028,204.860 300.971,199.800 300.972 C 194.740 300.972,192.725 301.029,195.323 301.099 M304.101 315.800 C 304.105 316.680,304.187 316.993,304.283 316.495 C 304.379 315.998,304.375 315.278,304.275 314.895 C 304.175 314.513,304.096 314.920,304.101 315.800 M111.301 316.600 C 111.305 317.480,111.387 317.793,111.483 317.295 C 111.579 316.798,111.575 316.078,111.475 315.695 C 111.375 315.313,111.296 315.720,111.301 316.600 M304.520 320.800 C 304.520 322.010,304.595 322.505,304.687 321.900 C 304.778 321.295,304.778 320.305,304.687 319.700 C 304.595 319.095,304.520 319.590,304.520 320.800 M95.731 323.400 C 95.733 324.940,95.805 325.521,95.892 324.691 C 95.979 323.861,95.977 322.601,95.889 321.891 C 95.800 321.181,95.729 321.860,95.731 323.400 M289.750 328.600 C 289.751 331.020,289.816 331.958,289.896 330.685 C 289.976 329.412,289.975 327.432,289.894 326.285 C 289.814 325.138,289.749 326.180,289.750 328.600 M95.728 337.200 C 95.728 338.630,95.801 339.215,95.889 338.500 C 95.978 337.785,95.978 336.615,95.889 335.900 C 95.801 335.185,95.728 335.770,95.728 337.200 M304.509 336.400 C 304.509 337.390,304.587 337.795,304.682 337.300 C 304.778 336.805,304.778 335.995,304.682 335.500 C 304.587 335.005,304.509 335.410,304.509 336.400 M304.093 340.800 C 304.093 341.570,304.175 341.885,304.276 341.500 C 304.376 341.115,304.376 340.485,304.276 340.100 C 304.175 339.715,304.093 340.030,304.093 340.800 M202.000 347.400 C 202.746 348.170,203.447 348.800,203.557 348.800 C 203.667 348.800,203.146 348.170,202.400 347.400 C 201.654 346.630,200.953 346.000,200.843 346.000 C 200.733 346.000,201.254 346.630,202.000 347.400 M268.305 367.883 C 268.802 367.979,269.522 367.975,269.905 367.875 C 270.287 367.775,269.880 367.696,269.000 367.701 C 268.120 367.705,267.807 367.787,268.305 367.883 M107.600 372.925 C 107.600 372.994,108.185 373.579,108.900 374.225 L 110.200 375.400 109.025 374.100 C 107.930 372.888,107.600 372.616,107.600 372.925 M127.700 382.676 C 128.085 382.776,128.715 382.776,129.100 382.676 C 129.485 382.575,129.170 382.493,128.400 382.493 C 127.630 382.493,127.315 382.575,127.700 382.676 M133.105 382.683 C 133.602 382.779,134.322 382.775,134.705 382.675 C 135.087 382.575,134.680 382.496,133.800 382.501 C 132.920 382.505,132.607 382.587,133.105 382.683 " stroke="none" fill="#1c434b" fill-rule="evenodd"></path></g></svg>