<svg id="visual" viewBox="0 0 900 200" width="900" height="200" xmlns="http://www.w3.org/2000/svg" xmlns:xlink="http://www.w3.org/1999/xlink" version="1.1"><path d="M0 33L82 33L82 15L164 15L164 21L245 21L245 33L327 33L327 23L409 23L409 35L491 35L491 25L573 25L573 33L655 33L655 21L736 21L736 25L818 25L818 19L900 19L900 15L900 0L900 0L818 0L818 0L736 0L736 0L655 0L655 0L573 0L573 0L491 0L491 0L409 0L409 0L327 0L327 0L245 0L245 0L164 0L164 0L82 0L82 0L0 0Z" fill="#012355"></path><path d="M0 65L82 65L82 73L164 73L164 113L245 113L245 57L327 57L327 77L409 77L409 83L491 83L491 81L573 81L573 73L655 73L655 111L736 111L736 77L818 77L818 51L900 51L900 91L900 13L900 17L818 17L818 23L736 23L736 19L655 19L655 31L573 31L573 23L491 23L491 33L409 33L409 21L327 21L327 31L245 31L245 19L164 19L164 13L82 13L82 31L0 31Z" fill="#0c3b70"></path><path d="M0 141L82 141L82 167L164 167L164 161L245 161L245 129L327 129L327 133L409 133L409 149L491 149L491 127L573 127L573 135L655 135L655 155L736 155L736 125L818 125L818 149L900 149L900 131L900 89L900 49L818 49L818 75L736 75L736 109L655 109L655 71L573 71L573 79L491 79L491 81L409 81L409 75L327 75L327 55L245 55L245 111L164 111L164 71L82 71L82 63L0 63Z" fill="#19558c"></path><path d="M0 153L82 153L82 179L164 179L164 179L245 179L245 147L327 147L327 163L409 163L409 161L491 161L491 153L573 153L573 151L655 151L655 171L736 171L736 153L818 153L818 163L900 163L900 145L900 129L900 147L818 147L818 123L736 123L736 153L655 153L655 133L573 133L573 125L491 125L491 147L409 147L409 131L327 131L327 127L245 127L245 159L164 159L164 165L82 165L82 139L0 139Z" fill="#2770a7"></path><path d="M0 201L82 201L82 201L164 201L164 201L245 201L245 201L327 201L327 201L409 201L409 201L491 201L491 201L573 201L573 201L655 201L655 201L736 201L736 201L818 201L818 201L900 201L900 201L900 143L900 161L818 161L818 151L736 151L736 169L655 169L655 149L573 149L573 151L491 151L491 159L409 159L409 161L327 161L327 145L245 145L245 177L164 177L164 177L82 177L82 151L0 151Z" fill="#368cc2"></path></svg>