<svg xmlns="http://www.w3.org/2000/svg" xmlns:xlink="http://www.w3.org/1999/xlink" id="visual" version="1.1" viewBox="0 489 900 112"><path d="M0 494L43 494L43 512L86 512L86 541L129 541L129 512L171 512L171 495L214 495L214 514L257 514L257 522L300 522L300 517L343 517L343 494L386 494L386 507L429 507L429 541L471 541L471 520L514 520L514 538L557 538L557 526L600 526L600 535L643 535L643 489L686 489L686 526L729 526L729 510L771 510L771 529L814 529L814 534L857 534L857 504L900 504L900 500L900 601L900 601L857 601L857 601L814 601L814 601L771 601L771 601L729 601L729 601L686 601L686 601L643 601L643 601L600 601L600 601L557 601L557 601L514 601L514 601L471 601L471 601L429 601L429 601L386 601L386 601L343 601L343 601L300 601L300 601L257 601L257 601L214 601L214 601L171 601L171 601L129 601L129 601L86 601L86 601L43 601L43 601L0 601Z" fill="#125178"/><path d="M0 520L43 520L43 526L86 526L86 515L129 515L129 546L171 546L171 567L214 567L214 553L257 553L257 543L300 543L300 522L343 522L343 552L386 552L386 564L429 564L429 532L471 532L471 555L514 555L514 549L557 549L557 525L600 525L600 568L643 568L643 563L686 563L686 534L729 534L729 549L771 549L771 565L814 565L814 541L857 541L857 566L900 566L900 552L900 601L900 601L857 601L857 601L814 601L814 601L771 601L771 601L729 601L729 601L686 601L686 601L643 601L643 601L600 601L600 601L557 601L557 601L514 601L514 601L471 601L471 601L429 601L429 601L386 601L386 601L343 601L343 601L300 601L300 601L257 601L257 601L214 601L214 601L171 601L171 601L129 601L129 601L86 601L86 601L43 601L43 601L0 601Z" fill="#256e9c"/><path d="M0 580L43 580L43 560L86 560L86 592L129 592L129 555L171 555L171 544L214 544L214 557L257 557L257 590L300 590L300 560L343 560L343 590L386 590L386 557L429 557L429 554L471 554L471 570L514 570L514 562L557 562L557 544L600 544L600 558L643 558L643 582L686 582L686 585L729 585L729 572L771 572L771 578L814 578L814 553L857 553L857 574L900 574L900 563L900 601L900 601L857 601L857 601L814 601L814 601L771 601L771 601L729 601L729 601L686 601L686 601L643 601L643 601L600 601L600 601L557 601L557 601L514 601L514 601L471 601L471 601L429 601L429 601L386 601L386 601L343 601L343 601L300 601L300 601L257 601L257 601L214 601L214 601L171 601L171 601L129 601L129 601L86 601L86 601L43 601L43 601L0 601Z" fill="#368cc2"/></svg>