<?xml version="1.0" encoding="utf-8"?>
<!-- Svg Vector Icons : http://www.onlinewebfonts.com/icon -->
<!DOCTYPE svg PUBLIC "-//W3C//DTD SVG 1.1//EN" "http://www.w3.org/Graphics/SVG/1.1/DTD/svg11.dtd">
<svg version="1.1" xmlns="http://www.w3.org/2000/svg" xmlns:xlink="http://www.w3.org/1999/xlink" x="0px" y="0px" viewBox="0 0 1000 1000" enable-background="new 0 0 1000 1000" xml:space="preserve">
<metadata> Svg Vector Icons : http://www.onlinewebfonts.com/icon </metadata>
<g><g transform="translate(0.000000,511.000000) scale(0.100000,-0.100000)"><path d="M2866.8,1048.7c-296.8-263.6-538.9-484.2-535-486.2C2343.5,550.8,3284.7,420,3644,379c193.3-21.5,509.6-46.9,702.9-56.6c439.3-23.4,1298.5-48.8,1298.5-39c0,3.9-91.8,285.1-201.1,622.9l-201.1,615.1l-915.8,3.9l-917.7,3.9L2866.8,1048.7z M5001,1091.7c19.5-23.4,19.5-62.5,2-179.6c-33.2-234.3,17.6-220.6-775.2-220.6c-579.9,0-673.7,3.9-683.4,29.3c-13.7,35.1,152.3,285.1,232.4,353.4l56.6,46.9h572.1C4889.7,1120.9,4979.6,1117,5001,1091.7z"/><path d="M9064.4,792.9c-29.3-21.5-64.4-107.4-111.3-267.5c-93.8-330-89.8-384.7,46.9-458.9l72.2-41L8047.1,37.2c-1749.5,19.5-3682.6,82-4245,138.6c-374.9,37.1-835.7,99.6-1720.2,232.4c-386.6,58.6-843.5,123-1015.4,146.4C574.5,619.1,100,630.8,100,578.1c0-7.8,103.5-177.7,230.4-378.8c380.8-609.2,699-1038.8,980.2-1327.8l146.4-148.4l488.1-17.6c712.7-23.4,3629.9-17.6,4344.6,9.8c1419.5,54.7,2220.1,119.1,2532.5,208.9l99.6,29.3l58.6,162.1c31.3,87.9,89.8,259.7,130.8,380.8l72.2,220.6l56.6-11.7c87.9-19.5,132.8,5.9,183.6,109.4l48.8,95.7h105.4c154.3,0,177.7,27.3,257.7,302.7c80.1,281.2,84,347.6,19.5,408.1c-80.1,72.2-515.5,207-677.5,207C9138.6,828,9085.9,812.4,9064.4,792.9z"/></g></g>
</svg>