<?xml version="1.0" encoding="utf-8"?>
<!-- Generator: Adobe Illustrator 22.1.0, SVG Export Plug-In . SVG Version: 6.00 Build 0)  -->
<svg version="1.1" id="Layer_1" xmlns="http://www.w3.org/2000/svg" xmlns:xlink="http://www.w3.org/1999/xlink" x="0px" y="0px"
	 width="1000px" height="1000px" viewBox="0 0 1000 1000" style="enable-background:new 0 0 1000 1000;" xml:space="preserve">
<path d="M28.6,562.4c14.1-22.6,40.7-35.6,67.3-28.8c11.3-11.3,27.7-14.7,43-8.5c20.3-33.9,59.9-54.3,100.6-48
	c1.7-27.7,25.4-49.2,54.3-44.7c17.5-38.4,54.3-65,99.5-65c36.7,0,69,18.1,88.7,45.8c17.5-11.3,37.9-18.1,59.9-18.1
	c45.2,0,82,26.6,99.5,65c28.8-4.5,52.6,16.4,54.3,45.2c41.3-6.2,79.1-13,100.6,20.3c15.3-6.2,31.7-2.8,43,8.5
	c26.6-6.8,53.1,6.2,67.3,28.8L28.6,562.4z"/>
</svg>
