<svg id="visual" viewBox="0 0 900 200" width="900" height="200" xmlns="http://www.w3.org/2000/svg" xmlns:xlink="http://www.w3.org/1999/xlink" version="1.1"><path d="M0 39L12.5 39C25 39 50 39 75 39.7C100 40.3 125 41.7 150 50.7C175 59.7 200 76.3 225 78.7C250 81 275 69 300 63.7C325 58.3 350 59.7 375 56.3C400 53 425 45 450 49C475 53 500 69 525 76.3C550 83.7 575 82.3 600 78.7C625 75 650 69 675 63.3C700 57.7 725 52.3 750 51.3C775 50.3 800 53.7 825 57.7C850 61.7 875 66.3 887.5 68.7L900 71L900 0L887.5 0C875 0 850 0 825 0C800 0 775 0 750 0C725 0 700 0 675 0C650 0 625 0 600 0C575 0 550 0 525 0C500 0 475 0 450 0C425 0 400 0 375 0C350 0 325 0 300 0C275 0 250 0 225 0C200 0 175 0 150 0C125 0 100 0 75 0C50 0 25 0 12.5 0L0 0Z" fill="#012355"></path><path d="M0 67L12.5 67.7C25 68.3 50 69.7 75 72.7C100 75.7 125 80.3 150 86.7C175 93 200 101 225 100.3C250 99.7 275 90.3 300 85.7C325 81 350 81 375 80C400 79 425 77 450 82C475 87 500 99 525 103.3C550 107.7 575 104.3 600 101.3C625 98.3 650 95.7 675 89.3C700 83 725 73 750 70.7C775 68.3 800 73.7 825 78C850 82.3 875 85.7 887.5 87.3L900 89L900 69L887.5 66.7C875 64.3 850 59.7 825 55.7C800 51.7 775 48.3 750 49.3C725 50.3 700 55.7 675 61.3C650 67 625 73 600 76.7C575 80.3 550 81.7 525 74.3C500 67 475 51 450 47C425 43 400 51 375 54.3C350 57.7 325 56.3 300 61.7C275 67 250 79 225 76.7C200 74.3 175 57.7 150 48.7C125 39.7 100 38.3 75 37.7C50 37 25 37 12.5 37L0 37Z" fill="#0c3b70"></path><path d="M0 127L12.5 131C25 135 50 143 75 144.7C100 146.3 125 141.7 150 140.7C175 139.7 200 142.3 225 140.3C250 138.3 275 131.7 300 134.3C325 137 350 149 375 151C400 153 425 145 450 141C475 137 500 137 525 138.7C550 140.3 575 143.7 600 146C625 148.3 650 149.7 675 149.3C700 149 725 147 750 147.3C775 147.7 800 150.3 825 148.3C850 146.3 875 139.7 887.5 136.3L900 133L900 87L887.5 85.3C875 83.7 850 80.3 825 76C800 71.7 775 66.3 750 68.7C725 71 700 81 675 87.3C650 93.7 625 96.3 600 99.3C575 102.3 550 105.7 525 101.3C500 97 475 85 450 80C425 75 400 77 375 78C350 79 325 79 300 83.7C275 88.3 250 97.7 225 98.3C200 99 175 91 150 84.7C125 78.3 100 73.7 75 70.7C50 67.7 25 66.3 12.5 65.7L0 65Z" fill="#19558c"></path><path d="M0 167L12.5 167.3C25 167.7 50 168.3 75 171.3C100 174.3 125 179.7 150 183C175 186.3 200 187.7 225 185C250 182.3 275 175.7 300 175C325 174.3 350 179.7 375 181.3C400 183 425 181 450 179C475 177 500 175 525 176.3C550 177.7 575 182.3 600 184.7C625 187 650 187 675 183.7C700 180.3 725 173.7 750 172C775 170.3 800 173.7 825 177C850 180.3 875 183.7 887.5 185.3L900 187L900 131L887.5 134.3C875 137.7 850 144.3 825 146.3C800 148.3 775 145.7 750 145.3C725 145 700 147 675 147.3C650 147.7 625 146.3 600 144C575 141.7 550 138.3 525 136.7C500 135 475 135 450 139C425 143 400 151 375 149C350 147 325 135 300 132.3C275 129.7 250 136.3 225 138.3C200 140.3 175 137.7 150 138.7C125 139.7 100 144.3 75 142.7C50 141 25 133 12.5 129L0 125Z" fill="#2770a7"></path><path d="M0 201L12.5 201C25 201 50 201 75 201C100 201 125 201 150 201C175 201 200 201 225 201C250 201 275 201 300 201C325 201 350 201 375 201C400 201 425 201 450 201C475 201 500 201 525 201C550 201 575 201 600 201C625 201 650 201 675 201C700 201 725 201 750 201C775 201 800 201 825 201C850 201 875 201 887.5 201L900 201L900 185L887.5 183.3C875 181.7 850 178.3 825 175C800 171.7 775 168.3 750 170C725 171.7 700 178.3 675 181.7C650 185 625 185 600 182.7C575 180.3 550 175.7 525 174.3C500 173 475 175 450 177C425 179 400 181 375 179.3C350 177.7 325 172.3 300 173C275 173.7 250 180.3 225 183C200 185.7 175 184.3 150 181C125 177.7 100 172.3 75 169.3C50 166.3 25 165.7 12.5 165.3L0 165Z" fill="#368cc2"></path></svg>