<svg xmlns:inkscape="http://www.inkscape.org/namespaces/inkscape" xmlns:rdf="http://www.w3.org/1999/02/22-rdf-syntax-ns#" xmlns="http://www.w3.org/2000/svg" xmlns:xlink="http://www.w3.org/1999/xlink" xmlns:ns1="http://sozi.baierouge.fr" xmlns:cc="http://creativecommons.org/ns#" xmlns:dc="http://purl.org/dc/elements/1.1/" xmlns:sodipodi="http://sodipodi.sourceforge.net/DTD/sodipodi-0.dtd" id="svg2" sodipodi:docname="owl.svg" version="1.1" inkscape:version="0.48.2 r9819" viewBox="102.95 445.46 538.2 161.46">
  <sodipodi:namedview id="base" bordercolor="#666666" inkscape:pageshadow="2" inkscape:window-y="20" pagecolor="#ffffff" inkscape:window-height="1063" inkscape:window-maximized="0" inkscape:zoom="0.0875" inkscape:window-x="20" showgrid="false" borderopacity="1.0" inkscape:current-layer="layer1" inkscape:cx="-478.91996" inkscape:cy="344.98578" inkscape:window-width="1836" inkscape:pageopacity="0.0" inkscape:document-units="px"/>
  <g id="layer1" inkscape:label="Layer 1" inkscape:groupmode="layer">
    <path id="path3394" style="fill:#000000" inkscape:connector-curvature="0" d="m610.43 602.35c-6.9945-5.2142-15.866-14.115-29.774-29.871-9.4863-10.747-15.352-14.082-31.458-17.888-16.908-3.995-21.994-3.8854-26.45 0.57026-3.3641 3.3642-3.456 3.7365-2.689 10.899 0.70641 6.5967 0.52438 7.6858-1.6482 9.8583-3.1592 3.1592-6.0191 3.078-16.14-0.45798-4.5657-1.5952-10.331-2.9003-12.812-2.9003-5.7837 0-21.092 2.6311-40.198 6.9093-8.2949 1.8573-20.824 4.2107-27.843 5.2297-7.0188 1.019-14.526 2.1343-16.682 2.4785l-3.9208 0.62569 4.1819 2.8417c3.9162 2.6612 7.0351 6.5751 6.0367 7.5754-1.0235 1.0253-28.727-1.1471-38.341-3.0066-10.179-1.9688-10.937-1.9561-30.163 0.5032-10.847 1.3875-29.935 2.8214-42.417 3.1865-34.309 1.0036-54.806-1.7227-85.775-11.408-7.977-2.4949-22.074-6.1017-31.326-8.0152-9.252-1.9134-18.388-4.0173-20.302-4.6753-1.9142-0.65794-9.4567-1.9862-16.761-2.9517-11.15-1.4739-15.431-2.6877-26.683-7.5667-19.855-8.609-20.919-10.822-6.8067-14.149 9.4218-2.2212 16.027-5.6108 16.027-8.2247 0-0.92334-4.6493-5.9665-10.332-11.207-9.773-9.013-12.871-13.032-12.871-16.697 0-3.29 6.053-8.6638 12.52-11.115 42.561-16.132 71.503-25.556 104.65-34.079 39.638-10.19 65.076-14.339 96.291-15.702 18.693-0.81677 22.436-1.3105 29.003-3.8259 13.716-5.253 27.625-5.1028 42.804 0.46237 8.8072 3.2291 19.33 5.541 25.644 5.634l5.2206 0.0769-4.6405 2.807c-2.5523 1.5439-5.3786 3.2528-6.2807 3.7975-1.058 0.639 7.1759 2.7652 23.203 5.9916 13.664 2.7506 31.061 6.5796 38.662 8.5088l13.819 3.5076 9.9635-1.9091c5.48-1.05 13.98-1.9056 18.89-1.9014 7.6724 0.007 9.3684 0.38797 12.073 2.7147 3.6275 3.1203 4.0848 8.4747 1.1113 13.013-1.7187 2.6232-1.6659 2.8823 0.93495 4.5865 6.8676 4.4999 16.085 6.6347 26.26 6.0819 12.602-0.6848 16.262-1.9961 59.167-21.196 14.475-6.4778 20.02-7.0066 24.073-2.2959 3.7731 4.3856 3.418 11.626-2.0771 42.349-3.3186 18.554-4.9793 31.807-5.7421 45.825-1.1499 21.131-3.0582 31.528-6.6801 36.398-3.3977 4.5686-6.0982 4.2954-13.722-1.3883z"/>
  </g>
  <metadata>
    <rdf:RDF>
      <cc:Work>
        <dc:format>image/svg+xml</dc:format>
        <dc:type rdf:resource="http://purl.org/dc/dcmitype/StillImage"/>
        <cc:license rdf:resource="http://creativecommons.org/licenses/publicdomain/"/>
        <dc:publisher>
          <cc:Agent rdf:about="http://openclipart.org/">
            <dc:title>Openclipart</dc:title>
          </cc:Agent>
        </dc:publisher>
      </cc:Work>
      <cc:License rdf:about="http://creativecommons.org/licenses/publicdomain/">
        <cc:permits rdf:resource="http://creativecommons.org/ns#Reproduction"/>
        <cc:permits rdf:resource="http://creativecommons.org/ns#Distribution"/>
        <cc:permits rdf:resource="http://creativecommons.org/ns#DerivativeWorks"/>
      </cc:License>
    </rdf:RDF>
  </metadata>
</svg>