<svg id="visual" viewBox="0 0 900 200" width="900" height="200" xmlns="http://www.w3.org/2000/svg" xmlns:xlink="http://www.w3.org/1999/xlink" version="1.1"><path d="M0 49L82 41L164 49L245 25L327 21L409 29L491 27L573 49L655 49L736 21L818 43L900 35L900 0L818 0L736 0L655 0L573 0L491 0L409 0L327 0L245 0L164 0L82 0L0 0Z" fill="#368cc2"></path><path d="M0 83L82 59L164 61L245 57L327 35L409 47L491 53L573 83L655 73L736 33L818 73L900 65L900 33L818 41L736 19L655 47L573 47L491 25L409 27L327 19L245 23L164 47L82 39L0 47Z" fill="#2770a7"></path><path d="M0 119L82 147L164 133L245 141L327 91L409 89L491 131L573 139L655 111L736 107L818 143L900 109L900 63L818 71L736 31L655 71L573 81L491 51L409 45L327 33L245 55L164 59L82 57L0 81Z" fill="#19558c"></path><path d="M0 173L82 183L164 187L245 169L327 171L409 171L491 177L573 175L655 161L736 157L818 179L900 163L900 107L818 141L736 105L655 109L573 137L491 129L409 87L327 89L245 139L164 131L82 145L0 117Z" fill="#0c3b70"></path><path d="M0 201L82 201L164 201L245 201L327 201L409 201L491 201L573 201L655 201L736 201L818 201L900 201L900 161L818 177L736 155L655 159L573 173L491 175L409 169L327 169L245 167L164 185L82 181L0 171Z" fill="#012355"></path></svg>