<svg xmlns="http://www.w3.org/2000/svg" xmlns:xlink="http://www.w3.org/1999/xlink" id="visual" version="1.1" viewBox="0 342 960 199"><path d="M0 393L22.8 389.8C45.7 386.7 91.3 380.3 137 376.8C182.7 373.3 228.3 372.7 274 379.2C319.7 385.7 365.3 399.3 411.2 411.7C457 424 503 435 548.8 424.7C594.7 414.3 640.3 382.7 686 372.2C731.7 361.7 777.3 372.3 823 370.8C868.7 369.3 914.3 355.7 937.2 348.8L960 342L960 541L937.2 541C914.3 541 868.7 541 823 541C777.3 541 731.7 541 686 541C640.3 541 594.7 541 548.8 541C503 541 457 541 411.2 541C365.3 541 319.7 541 274 541C228.3 541 182.7 541 137 541C91.3 541 45.7 541 22.8 541L0 541Z" fill="#012355" stroke-linecap="round" stroke-linejoin="miter"/></svg>