<!--?xml version="1.0" standalone="no"?-->              <svg id="sw-js-blob-svg" viewBox="0 0 100 100" xmlns="http://www.w3.org/2000/svg">                    <defs>                         <linearGradient id="sw-gradient" x1="0" x2="1" y1="1" y2="0">                            <stop id="stop1" stop-color="rgba(0, 39.816, 167.415, 1)" offset="0%"></stop>                            <stop id="stop2" stop-color="rgba(211.283, 237.259, 246.106, 1)" offset="100%"></stop>                        </linearGradient>                    </defs>                <path fill="url(#sw-gradient)" d="M22.7,-28.8C28.8,-22,32.7,-14.2,32.9,-6.7C33.2,0.8,29.9,8.1,26.4,16.3C22.9,24.6,19.3,33.9,12.6,37.8C5.8,41.7,-4.2,40.2,-13.4,36.8C-22.6,33.4,-31.1,28.2,-34.5,20.7C-37.9,13.2,-36.2,3.6,-34.7,-6.4C-33.3,-16.4,-32.1,-26.6,-26.4,-33.5C-20.7,-40.3,-10.3,-43.6,-1,-42.4C8.3,-41.3,16.7,-35.5,22.7,-28.8Z" width="100%" height="100%" transform="translate(50 50)" stroke-width="0" style="transition: all 0.3s ease 0s;" stroke="url(#sw-gradient)"></path>              </svg>